<svg width="21" height="20" viewBox="0 0 21 20" fill="none" xmlns="http://www.w3.org/2000/svg">
<g id="Group">
<path id="Vector" d="M20.3049 5.63004C20.0486 3.68572 19.3628 2.31535 18.2632 1.55649C16.9043 0.617001 15.3298 0.426107 13.9411 0.257853L13.6567 0.223265C10.773 -0.14937 7.84821 -0.0550705 4.99457 0.502547C4.31394 0.619287 3.64906 0.814187 3.0131 1.08334C2.24288 1.40783 1.58189 1.9464 1.1085 2.6352C0.393208 3.71092 0.239467 5.09838 0.152351 6.31502C0.060964 7.59315 -0.027439 9.11086 0.00800546 10.6708C0.0216708 11.2559 0.0400395 11.9366 0.08616 12.6139C0.174558 13.9185 0.37014 15.5942 1.09995 16.9812C2.10222 18.8867 3.78733 19.3381 4.96767 19.5114C6.65795 19.7943 8.36609 19.9576 10.0794 20H10.1912C11.9117 19.981 13.6269 19.8057 15.3157 19.4764C16.6601 19.233 18.0368 18.8606 19.0062 17.793C20.0508 16.6426 20.2447 14.9536 20.3565 13.3223C20.5913 10.7627 20.574 8.18626 20.3049 5.63004ZM19.0767 13.2365C18.981 14.6428 18.8239 16.087 18.0556 16.933C17.3079 17.7567 16.1301 18.0275 15.0851 18.2171C13.4368 18.5322 11.7638 18.7002 10.0858 18.7193C8.43255 18.6766 6.78438 18.5177 5.15343 18.244C3.678 18.0271 2.80471 17.4715 2.2329 16.3855C1.6154 15.2107 1.44415 13.7062 1.36344 12.5276C1.32074 11.8764 1.30195 11.2128 1.28871 10.6422C1.25412 9.13434 1.34081 7.65294 1.43006 6.4064C1.50522 5.35332 1.63162 4.16102 2.17482 3.34452C2.51339 2.85663 2.98613 2.47734 3.5358 2.25257C4.08175 2.02497 4.65181 1.8602 5.235 1.76146C7.95654 1.22981 10.7459 1.13956 13.4961 1.49415L13.7869 1.52959C15.0894 1.6876 16.4346 1.85073 17.5351 2.61044C18.3238 3.15492 18.8282 4.22721 19.0344 5.79701C19.2909 8.26954 19.305 10.7612 19.0767 13.2365Z" fill="#FF4B6B"/>
<path id="Vector_2" d="M7.18283 8.52692C7.4188 8.52684 7.64944 8.45681 7.8456 8.32565C8.04176 8.19449 8.19462 8.0081 8.28487 7.79008C8.37511 7.57205 8.39867 7.33217 8.35258 7.10075C8.3065 6.86933 8.19282 6.65677 8.02594 6.48995C7.85906 6.32313 7.64646 6.20952 7.41503 6.16352C7.18359 6.11752 6.94371 6.14118 6.72571 6.23149C6.50772 6.32181 6.32139 6.47474 6.19031 6.67094C6.05922 6.86715 5.98926 7.09783 5.98926 7.33379C5.98994 7.6501 6.11591 7.95325 6.33962 8.17687C6.56332 8.4005 6.86652 8.52636 7.18283 8.52692ZM7.18283 7.2458C7.20609 7.24591 7.22836 7.25525 7.24476 7.27173C7.26117 7.28822 7.27038 7.31053 7.27038 7.33379C7.27038 7.43073 7.09486 7.43073 7.09486 7.33379C7.09498 7.31049 7.10429 7.28818 7.12076 7.2717C7.13723 7.25523 7.15953 7.24591 7.18283 7.2458Z" fill="#FF4B6B"/>
<path id="Vector_3" d="M13.3367 8.52693C13.5727 8.52693 13.8034 8.45697 13.9996 8.32587C14.1958 8.19476 14.3487 8.00842 14.439 7.7904C14.5294 7.57238 14.553 7.33246 14.5069 7.10101C14.4609 6.86957 14.3473 6.65695 14.1804 6.49009C14.0135 6.32322 13.8009 6.20959 13.5695 6.16355C13.338 6.11751 13.0981 6.14114 12.8801 6.23145C12.6621 6.32176 12.4757 6.47468 12.3446 6.6709C12.2135 6.86711 12.1436 7.09781 12.1436 7.3338C12.1442 7.65003 12.2702 7.95311 12.4938 8.17672C12.7174 8.40034 13.0205 8.52625 13.3367 8.52693ZM13.3367 7.2458C13.36 7.2458 13.3824 7.25508 13.3989 7.27158C13.4154 7.28808 13.4247 7.31047 13.4247 7.3338C13.4247 7.43074 13.2487 7.43074 13.2487 7.3338C13.2489 7.3105 13.2582 7.28819 13.2746 7.27171C13.2911 7.25524 13.3134 7.24592 13.3367 7.2458Z" fill="#FF4B6B"/>
<path id="Vector_4" d="M14.5417 12.9327C13.352 11.9509 11.8602 11.4091 10.3176 11.3986C8.77511 11.3881 7.27608 11.9095 6.07306 12.875L5.16047 13.6112C5.02819 13.7179 4.94368 13.8727 4.92554 14.0416C4.9074 14.2106 4.95711 14.3798 5.06375 14.5121C5.17038 14.6444 5.3252 14.7289 5.49414 14.747C5.66308 14.7652 5.8323 14.7154 5.96459 14.6088L6.87717 13.8722C7.84969 13.0916 9.06152 12.67 10.3085 12.6784C11.5556 12.6868 12.7616 13.1246 13.7235 13.9183L14.5481 14.6016C14.6129 14.6553 14.6876 14.6957 14.7679 14.7206C14.8483 14.7454 14.9328 14.7542 15.0166 14.7464C15.1003 14.7386 15.1818 14.7144 15.2562 14.6752C15.3306 14.6359 15.3965 14.5824 15.4502 14.5176C15.504 14.4529 15.5444 14.3782 15.5693 14.2978C15.5941 14.2175 15.6029 14.133 15.5951 14.0492C15.5873 13.9654 15.5631 13.884 15.5239 13.8096C15.4846 13.7352 15.4311 13.6692 15.3663 13.6155L14.5417 12.9327Z" fill="#FF4B6B"/>
</g>
</svg>
