<svg width="19" height="21" viewBox="0 0 19 21" fill="none" xmlns="http://www.w3.org/2000/svg">
<g id="Iconly/Light-Outline/Bag">
<g id="Bag">
<g id="Group 3">
<mask id="mask0_27_4465" style="mask-type:luminance" maskUnits="userSpaceOnUse" x="1" y="5" width="16" height="15">
<path id="Clip 2" fill-rule="evenodd" clip-rule="evenodd" d="M1.99536 5.53711H16.8964V19.0078H1.99536V5.53711Z" fill="white"/>
</mask>
<g mask="url(#mask0_27_4465)">
<path id="Fill 1" fill-rule="evenodd" clip-rule="evenodd" d="M5.58296 6.78581C5.24745 6.78581 4.12602 6.93399 3.8042 8.83535L3.21686 13.8302C3.0259 15.2312 3.17349 16.2452 3.6566 16.8587C4.13363 17.4647 4.98725 17.7594 6.26541 17.7594H12.6166C13.4139 17.7594 14.5027 17.5854 15.16 16.7546C15.6819 16.0962 15.8615 15.1155 15.6941 13.8393L15.1014 8.80122C14.8488 7.56001 14.1824 6.78581 13.3272 6.78581H5.58296ZM12.6166 19.0081H6.26541C4.635 19.0081 3.49912 18.5711 2.79233 17.6729C2.0825 16.7721 1.84513 15.421 2.08706 13.6579L2.67745 8.64139C3.06546 6.34128 4.48436 5.53711 5.58296 5.53711H13.3272C14.4304 5.53711 15.7717 6.33878 16.2244 8.58728L16.8246 13.6712C17.0399 15.312 16.7706 16.6281 16.0227 17.5721C15.2787 18.5112 14.1009 19.0081 12.6166 19.0081Z" fill="white"/>
</g>
</g>
<path id="Fill 4" fill-rule="evenodd" clip-rule="evenodd" d="M12.7212 6.60279C12.4062 6.60279 12.1506 6.32308 12.1506 5.97843C12.1506 4.3393 10.9318 3.00652 9.43448 3.00652H9.42307C8.70715 3.00652 8.0095 3.32202 7.50356 3.87229C6.99534 4.42588 6.70395 5.19425 6.70395 5.97843C6.70395 6.32308 6.44832 6.60279 6.13335 6.60279C5.81837 6.60279 5.56274 6.32308 5.56274 5.97843C5.56274 4.86376 5.97662 3.77405 6.69787 2.98737C7.41683 2.20568 8.40816 1.75781 9.42079 1.75781H9.43677C11.5617 1.75781 13.2918 3.65085 13.2918 5.97843C13.2918 6.32308 13.0361 6.60279 12.7212 6.60279Z" fill="white"/>
<path id="Fill 6" fill-rule="evenodd" clip-rule="evenodd" d="M11.6906 10.3521H11.6556C11.3406 10.3521 11.085 10.0724 11.085 9.72775C11.085 9.3831 11.3406 9.10339 11.6556 9.10339C11.9705 9.10339 12.2437 9.3831 12.2437 9.72775C12.2437 10.0724 12.0055 10.3521 11.6906 10.3521Z" fill="white"/>
<path id="Fill 8" fill-rule="evenodd" clip-rule="evenodd" d="M7.25425 10.3521H7.22002C6.90504 10.3521 6.64941 10.0724 6.64941 9.72775C6.64941 9.3831 6.90504 9.10339 7.22002 9.10339C7.53499 9.10339 7.80812 9.3831 7.80812 9.72775C7.80812 10.0724 7.56923 10.3521 7.25425 10.3521Z" fill="white"/>
</g>
</g>
</svg>
