<svg width="14" height="14" viewBox="0 0 14 14" fill="none" xmlns="http://www.w3.org/2000/svg">
<path id="Vector" d="M7 0C3.1402 0 0 3.1402 0 7C0 10.8598 3.1402 14 7 14C10.8598 14 14 10.8598 14 7C14 3.1402 10.8598 0 7 0ZM1.4 7C1.4 5.7078 1.8438 4.5206 2.5816 3.5721L10.4279 11.4184C9.4801 12.1562 8.2922 12.6 7 12.6C3.9123 12.6 1.4 10.0877 1.4 7ZM11.4184 10.4279L3.5721 2.5816C4.5206 1.8438 5.7078 1.4 7 1.4C10.0877 1.4 12.6 3.9123 12.6 7C12.6 8.2922 12.1555 9.4794 11.4184 10.4279Z" fill="#EC7979"/>
</svg>
