<svg width="16" height="16" viewBox="0 0 16 16" fill="none" xmlns="http://www.w3.org/2000/svg">
<g id="icons / bx-package">
<path id="Vector" d="M14.6617 5.29998C14.6597 5.25198 14.655 5.20331 14.6423 5.15731C14.6377 5.14064 14.6283 5.12464 14.6223 5.10798C14.6083 5.06998 14.5957 5.03264 14.5757 4.99798C14.565 4.97998 14.5503 4.96531 14.5377 4.94798C14.5163 4.91798 14.4957 4.88731 14.4697 4.86131C14.4543 4.84664 14.4343 4.83464 14.4177 4.82064C14.3917 4.79931 14.3677 4.77598 14.3377 4.75798C14.335 4.75598 14.3317 4.75598 14.3283 4.75398C14.3263 4.75264 14.325 4.75131 14.323 4.74998L8.33701 1.42331C8.13634 1.31131 7.89234 1.31198 7.69034 1.42264L1.67634 4.74931C1.67434 4.75131 1.67234 4.75398 1.66901 4.75598C1.66701 4.75664 1.66434 4.75731 1.66234 4.75864C1.63901 4.77198 1.62167 4.79131 1.59967 4.80731C1.57567 4.82531 1.55034 4.84131 1.52901 4.86198C1.50901 4.88264 1.49367 4.90664 1.47634 4.92998C1.45834 4.95331 1.43834 4.97398 1.42367 4.99931C1.40634 5.02798 1.39701 5.06064 1.38434 5.09198C1.37501 5.11398 1.36301 5.13464 1.35701 5.15864C1.34434 5.20331 1.34034 5.25131 1.33767 5.29864C1.33701 5.30998 1.33301 5.31998 1.33301 5.33198V5.33264V5.33331V10.6666C1.33301 10.9086 1.46434 11.132 1.67634 11.2493L7.66167 14.574L7.66234 14.5746C7.66301 14.5746 7.66301 14.5746 7.66367 14.5753L7.67701 14.5826C7.70567 14.5986 7.73701 14.6073 7.76701 14.6186C7.78834 14.6273 7.80901 14.6386 7.83167 14.6446C7.88567 14.6586 7.94301 14.6666 7.99967 14.6666C8.05634 14.6666 8.11367 14.6586 8.16901 14.6446C8.19101 14.6386 8.21167 14.6273 8.23367 14.6186C8.26367 14.6073 8.29501 14.5993 8.32367 14.5826L8.33701 14.5753C8.33767 14.5746 8.33767 14.5746 8.33834 14.5746L8.33901 14.574L14.3243 11.2493C14.535 11.132 14.6663 10.9086 14.6663 10.6666V5.33331V5.33264V5.33198C14.6663 5.32064 14.6623 5.31131 14.6617 5.29998ZM7.98101 7.91464L3.37167 5.33664L5.21301 4.31798L9.76901 6.92131L7.98101 7.91464ZM8.01301 2.76864L12.627 5.33331L11.131 6.16464L6.57767 3.56264L8.01301 2.76864ZM2.66634 6.46998L7.33301 9.08064V12.8673L2.66634 10.274V6.46998ZM8.66634 12.8673L8.66767 9.08131L10.6663 7.96264V9.99998L11.9997 9.33331V7.21664L13.333 6.47064V10.274L8.66634 12.8673Z" fill="#66C8F9"/>
</g>
</svg>
