<svg width="17" height="16" viewBox="0 0 17 16" fill="none" xmlns="http://www.w3.org/2000/svg">
<g id="icons / bx-phone-call">
<path id="Vector" d="M11.7347 14.666C11.7383 14.666 11.751 14.666 11.7546 14.666C12.1286 14.666 12.482 14.5273 12.7498 14.2753L14.6708 12.4673C14.9477 12.2066 14.9477 11.7853 14.6708 11.5246L11.8374 8.85798C11.5605 8.59731 11.1128 8.59731 10.8359 8.85798L9.70677 9.92065C9.18331 9.77398 8.20652 9.44065 7.58744 8.85798C6.96835 8.27531 6.61419 7.35598 6.45835 6.86331L7.58744 5.80065C7.8644 5.53998 7.8644 5.11865 7.58744 4.85798L4.7541 2.19131C4.48848 1.94131 4.01815 1.94131 3.75252 2.19131L1.83223 3.99931C1.56306 4.25265 1.41148 4.60065 1.41715 4.95598C1.43344 5.90531 1.70048 9.20265 4.46156 11.8013C7.22265 14.4 10.7261 14.6506 11.7347 14.666ZM4.25402 3.60531L6.08577 5.32931L5.1699 6.19131C5.0006 6.34998 4.92835 6.57931 4.97794 6.79931C4.99494 6.87598 5.41073 8.69398 6.58656 9.80065C7.7624 10.9073 9.69402 11.2986 9.77548 11.3146C10.0114 11.3613 10.2529 11.2933 10.4215 11.134L11.3374 10.272L13.1691 11.996L11.7482 13.3326C10.8642 13.3186 7.8396 13.0953 5.46315 10.858C3.0789 8.61398 2.84798 5.75731 2.83381 4.94198L4.25402 3.60531ZM14.1664 7.33265H15.5831C15.5831 3.91265 12.8397 1.33331 9.20102 1.33331V2.66665C12.0783 2.66665 14.1664 4.62865 14.1664 7.33265Z" fill="#66C8F9"/>
<path id="Vector_2" d="M9.20801 5.33333C10.6976 5.33333 11.333 5.93133 11.333 7.33333H12.7497C12.7497 5.18333 11.4924 4 9.20801 4V5.33333Z" fill="#66C8F9"/>
</g>
</svg>
