<svg width="16" height="16" viewBox="0 0 16 16" fill="none" xmlns="http://www.w3.org/2000/svg">
<g id="icons / bx-phone-incoming">
<path id="Vector" d="M11.1412 8.85874C10.8805 8.59808 10.4592 8.59808 10.1985 8.85874L9.13386 9.92274C8.58452 9.75941 7.68986 9.40874 7.14052 8.85874C6.55786 8.27608 6.22452 7.35674 6.07786 6.86408L7.14052 5.80141C7.40119 5.54074 7.40119 5.11941 7.14052 4.85874L4.47386 2.19208C4.22386 1.94208 3.78119 1.94208 3.53119 2.19208L1.72519 3.99874C1.47052 4.25208 1.32719 4.60141 1.33319 4.95674C1.34786 5.90541 1.59719 9.20141 4.19786 11.8021C6.79652 14.4001 10.0945 14.6514 11.0439 14.6667C11.0472 14.6667 11.0592 14.6667 11.0625 14.6667C11.4145 14.6667 11.7472 14.5281 11.9992 14.2761L13.8072 12.4681C14.0679 12.2074 14.0679 11.7861 13.8072 11.5254L11.1412 8.85874ZM11.0565 13.3334C10.2245 13.3194 7.37786 13.0961 5.14052 10.8587C2.89519 8.61341 2.67919 5.75741 2.66652 4.94274L4.00252 3.60608L5.72652 5.33008L4.86452 6.19208C4.70586 6.35074 4.63786 6.58008 4.68386 6.80008C4.69986 6.87674 5.09119 8.69474 6.19786 9.80141C7.30452 10.9081 9.12252 11.2994 9.19919 11.3154C9.41986 11.3627 9.64786 11.2941 9.80719 11.1347L10.6692 10.2727L12.3932 11.9967L11.0565 13.3334Z" fill="#66C8F9"/>
<path id="Vector_2" d="M10.5299 4.52739L8.66992 2.66672V7.33006H13.3333L11.4726 5.47006L14.4746 2.46806L13.5319 1.52539L10.5299 4.52739Z" fill="#66C8F9"/>
</g>
</svg>
