<svg width="19" height="19" viewBox="0 0 19 19" fill="none" xmlns="http://www.w3.org/2000/svg">
<g id="icons / bx-wallet">
<path id="Vector" d="M12.667 10.2917C12.667 9.85444 13.0214 9.5 13.4587 9.5C13.8959 9.5 14.2503 9.85444 14.2503 10.2917V11.875C14.2503 12.3122 13.8959 12.6667 13.4587 12.6667C13.0214 12.6667 12.667 12.3122 12.667 11.875V10.2917Z" fill="#F9F9F9"/>
<path id="Vector_2" d="M15.833 5.54167V3.95833C15.833 3.08512 15.1229 2.375 14.2497 2.375H3.95801C2.64859 2.375 1.58301 3.44058 1.58301 4.75V14.25C1.58301 15.9925 3.00326 16.625 3.95801 16.625H15.833C16.7062 16.625 17.4163 15.9149 17.4163 15.0417V7.125C17.4163 6.25179 16.7062 5.54167 15.833 5.54167ZM3.95801 3.95833H14.2497V5.54167H3.95801C3.52101 5.54167 3.16634 5.18621 3.16634 4.75C3.16634 4.31379 3.52101 3.95833 3.95801 3.95833ZM15.833 15.0417H3.96751C3.60176 15.0322 3.16634 14.8873 3.16634 14.25V6.97854C3.41492 7.068 3.67855 7.125 3.95801 7.125H15.833V15.0417Z" fill="#F9F9F9"/>
</g>
</svg>
