<svg width="19" height="18" viewBox="0 0 19 18" fill="none" xmlns="http://www.w3.org/2000/svg">
<g id="vuesax/linear/menu-board">
<g id="vuesax/linear/menu-board_2">
<g id="menu-board">
<path id="Vector" d="M17.275 5.36411L14.7475 14.9479C14.5675 15.6633 13.8925 16.1591 13.1125 16.1591H3.25749C2.12499 16.1591 1.315 15.1107 1.6525 14.0836L4.81 4.50705C5.0275 3.84122 5.68001 3.38074 6.41501 3.38074H15.64C16.3525 3.38074 16.945 3.79157 17.1925 4.35824C17.335 4.66282 17.365 5.00994 17.275 5.36411Z" stroke="#66C8F9" stroke-width="1.5" stroke-miterlimit="10"/>
<path id="Vector_2" d="M12.8276 16.1591H16.4126C17.3801 16.1591 18.1376 15.3871 18.0701 14.4733L17.3276 4.82581" stroke="#66C8F9" stroke-width="1.5" stroke-miterlimit="10" stroke-linecap="round" stroke-linejoin="round"/>
<path id="Vector_3" d="M8.0874 5.095L8.86741 2.03503" stroke="#66C8F9" stroke-width="1.5" stroke-miterlimit="10" stroke-linecap="round" stroke-linejoin="round"/>
<path id="Vector_4" d="M13.1128 5.1021L13.8178 2.02795" stroke="#66C8F9" stroke-width="1.5" stroke-miterlimit="10" stroke-linecap="round" stroke-linejoin="round"/>
<path id="Vector_5" d="M6.60254 9.07581H12.6025" stroke="#66C8F9" stroke-width="1.5" stroke-miterlimit="10" stroke-linecap="round" stroke-linejoin="round"/>
<path id="Vector_6" d="M5.85254 11.9092H11.8525" stroke="#66C8F9" stroke-width="1.5" stroke-miterlimit="10" stroke-linecap="round" stroke-linejoin="round"/>
</g>
</g>
</g>
</svg>
