<svg width="25" height="24" viewBox="0 0 25 24" fill="none" xmlns="http://www.w3.org/2000/svg">
<g id="directbox-default">
<g id="Vector">
<path d="M19.5557 14V6C19.5557 3.79 19.5557 2 15.5557 2H9.55566C5.55566 2 5.55566 3.79 5.55566 6V14" fill="#FFB800"/>
<path d="M19.5557 14V6C19.5557 3.79 19.5557 2 15.5557 2H9.55566C5.55566 2 5.55566 3.79 5.55566 6V14" stroke="white" stroke-width="1.5" stroke-miterlimit="10" stroke-linecap="round" stroke-linejoin="round"/>
</g>
<path id="Vector_2" d="M7.55566 12C3.55566 12 3.55566 13.79 3.55566 16V17C3.55566 19.76 3.55566 22 8.55566 22H16.5557C20.5557 22 21.5557 19.76 21.5557 17V16C21.5557 13.79 21.5557 12 17.5557 12C16.5557 12 16.2757 12.21 15.7557 12.6L14.7357 13.68C13.5557 14.94 11.5557 14.94 10.3657 13.68L9.35566 12.6C8.83566 12.21 8.55566 12 7.55566 12Z" fill="#FFB800" stroke="white" stroke-width="1.5" stroke-miterlimit="10" stroke-linecap="round" stroke-linejoin="round"/>
</g>
</svg>
