<svg width="25" height="25" viewBox="0 0 25 25" fill="none" xmlns="http://www.w3.org/2000/svg">
<g id="directbox-default">
<g id="Vector">
<path d="M19.417 14.2913V6.29126C19.417 4.08126 19.417 2.29126 15.417 2.29126H9.41699C5.41699 2.29126 5.41699 4.08126 5.41699 6.29126V14.2913" fill="#66C8F9"/>
<path d="M19.417 14.2913V6.29126C19.417 4.08126 19.417 2.29126 15.417 2.29126H9.41699C5.41699 2.29126 5.41699 4.08126 5.41699 6.29126V14.2913" stroke="white" stroke-width="1.5" stroke-miterlimit="10" stroke-linecap="round" stroke-linejoin="round"/>
</g>
<path id="Vector_2" d="M7.41699 12.2913C3.41699 12.2913 3.41699 14.0813 3.41699 16.2913V17.2913C3.41699 20.0513 3.41699 22.2913 8.41699 22.2913H16.417C20.417 22.2913 21.417 20.0513 21.417 17.2913V16.2913C21.417 14.0813 21.417 12.2913 17.417 12.2913C16.417 12.2913 16.137 12.5013 15.617 12.8913L14.597 13.9713C13.417 15.2313 11.417 15.2313 10.227 13.9713L9.21699 12.8913C8.69699 12.5013 8.41699 12.2913 7.41699 12.2913Z" fill="#66C8F9" stroke="white" stroke-width="1.5" stroke-miterlimit="10" stroke-linecap="round" stroke-linejoin="round"/>
</g>
</svg>
