<svg width="24" height="25" viewBox="0 0 24 25" fill="none" xmlns="http://www.w3.org/2000/svg">
<g id="vuesax/linear/dislike">
<g id="vuesax/linear/dislike_2">
<g id="dislike">
<path id="Vector" d="M16.5197 6.46509L13.4197 4.06509C13.0197 3.66509 12.1197 3.46509 11.5197 3.46509H7.71973C6.51973 3.46509 5.21973 4.36509 4.91973 5.56509L2.51973 12.8651C2.01973 14.2651 2.91973 15.4651 4.41973 15.4651H8.41973C9.01973 15.4651 9.51973 15.9651 9.41973 16.6651L8.91973 19.8651C8.71973 20.7651 9.31973 21.7651 10.2197 22.0651C11.0197 22.3651 12.0197 21.9651 12.4197 21.3651L16.5197 15.2651" stroke="#292D32" stroke-width="1.5" stroke-miterlimit="10"/>
<path id="Vector_2" d="M21.6201 6.46506V16.2651C21.6201 17.6651 21.0201 18.1651 19.6201 18.1651H18.6201C17.2201 18.1651 16.6201 17.6651 16.6201 16.2651V6.46506C16.6201 5.06506 17.2201 4.56506 18.6201 4.56506H19.6201C21.0201 4.56506 21.6201 5.06506 21.6201 6.46506Z" stroke="#292D32" stroke-width="1.5" stroke-linecap="round" stroke-linejoin="round"/>
</g>
</g>
</g>
</svg>
