<svg width="124" height="124" viewBox="0 0 124 124" fill="none" xmlns="http://www.w3.org/2000/svg">
<g id="Frame 4">
<g clip-path="url(#clip0_292_877)">
<rect width="124" height="124" rx="62" fill="#66C8F9"/>
<g id="XMLID 775">
<path id="XMLID 776" d="M107.527 101.314C104.908 95.6323 88.1502 90.5717 78.384 87.9304C72.1248 86.2435 73.9671 58.6097 73.9671 58.6097H50.4173C50.4173 58.6097 52.2595 86.2213 46.0003 87.9304C36.2342 90.5717 19.4763 95.6101 16.8572 101.314C14.6154 106.175 15.5477 123.976 15.5477 123.976H108.814C108.814 123.999 109.747 106.175 107.527 101.314Z" fill="#F5F5F5"/>
</g>
<g id="XMLID 773">
<path id="XMLID 774" d="M40.9399 38.0814C37.2776 38.5697 33.9482 41.5217 35.8127 48.0473C37.211 52.997 34.8139 58.1686 42.0275 58.4127L40.9399 38.0814Z" fill="#F5F5F5"/>
</g>
<g id="XMLID 771">
<path id="XMLID 772" d="M83.2216 38.0563C86.8839 38.4559 90.2798 41.3191 88.593 47.9113C87.3056 52.9053 89.8359 58.0103 82.6445 58.4321L83.2216 38.0563Z" fill="#F5F5F5"/>
</g>
<g id="XMLID 769">
<path id="XMLID 770" d="M83.6002 36.371C83.6224 35.8605 83.6446 35.3278 83.6446 34.7951C83.6224 20.39 75.0548 12 64.4008 12C63.6462 12 62.9137 12.0444 62.1813 12.1332C61.4488 12.0444 60.7163 12 59.9617 12C49.3077 12 40.7179 20.39 40.7179 34.7951C40.7179 35.3278 40.7401 35.8383 40.7623 36.371C40.3184 45.9596 38.9645 60.9418 43.2926 66.8015C47.5542 72.5724 54.3461 78.876 57.5645 78.876H66.798C69.9942 78.876 76.8083 72.5946 81.0699 66.8015C85.398 60.9418 84.0441 45.9596 83.6002 36.371Z" fill="#F5F5F5"/>
</g>
<g id="XMLID 765">
<path id="XMLID 766" d="M107.527 101.316C105.263 96.4106 92.4781 91.9715 82.7341 89.1526C77.8954 95.5672 70.482 99.6956 62.1808 99.6956C53.8796 99.6956 46.4662 95.5894 41.6275 89.1526C31.8835 91.9715 19.0987 96.3884 16.8348 101.316C14.593 106.177 15.5252 123.978 15.5252 123.978H108.792C108.814 124 109.746 106.177 107.527 101.316Z" fill="#D3D3D3"/>
</g>
<g id="XMLID 738">
<path id="XMLID 764" d="M107.526 101.316C105.817 97.6092 98.1151 94.1689 90.2356 91.5054C87.6831 90.6398 85.1084 89.8407 82.7334 89.1526C79.404 93.5474 74.8761 96.8768 69.6822 98.5192L63.8669 109.795L62.291 123.978H108.814C108.814 124 109.746 106.177 107.526 101.316Z" fill="#7670E1"/>
</g>
<g id="XMLID 736">
<path id="XMLID 737" d="M60.7384 109.818L54.9897 98.6309C49.6627 97.0106 45.0238 93.6591 41.6278 89.1755C39.3194 89.8414 36.8335 90.596 34.3697 91.4395C26.4236 94.1252 18.5885 97.5877 16.8572 101.339C14.6154 106.2 15.5477 124.001 15.5477 124.001H62.3143L60.7384 109.818Z" fill="#7670E1"/>
</g>
<g id="XMLID 723">
<path id="XMLID 724" d="M54.9893 98.6309L48.4194 85.8683V85.3356C49.3516 83.2936 49.9065 80.2971 50.2394 77.0343H48.4194C48.4194 77.0343 44.9568 76.2353 41.5831 77.0343C37.721 77.9444 32.7491 82.095 34.1475 90.5516C34.1918 90.8401 34.2806 91.1287 34.3694 91.4172C36.5224 97.7208 50.6168 105.045 57.2755 108.219C59.3841 109.218 60.7602 109.818 60.7602 109.818L54.9893 98.6309Z" fill="#7670E1"/>
</g>
<g id="XMLID 720">
<path id="XMLID 722" d="M83.0457 77.055C79.6719 76.256 76.2093 77.055 76.2093 77.055H74.1229C74.4781 80.6064 75.1217 83.8469 76.2093 85.889L69.7059 98.5406L63.8906 109.816C63.8906 109.816 65.2668 109.239 67.3754 108.218C74.0119 105.066 87.9953 97.7859 90.2371 91.5045C90.3481 91.1938 90.4369 90.883 90.4813 90.5723C91.8796 82.1157 86.9077 77.9429 83.0457 77.055Z" fill="#7670E1"/>
</g>
</g>
</g>
<defs>
<clipPath id="clip0_292_877">
<rect width="124" height="124" rx="62" fill="white"/>
</clipPath>
</defs>
</svg>
