<svg width="22" height="22" viewBox="0 0 22 22" fill="none" xmlns="http://www.w3.org/2000/svg">
<g id="Graph">
<path id="Stroke 1" fill-rule="evenodd" clip-rule="evenodd" d="M16.2777 12.8896C16.9524 12.8896 17.5188 13.4465 17.4156 14.1128C16.8103 18.0328 13.4545 20.9433 9.40717 20.9433C4.92928 20.9433 1.2998 17.3138 1.2998 12.837C1.2998 9.14858 4.10191 5.71279 7.25665 4.93595C7.93454 4.76858 8.62928 5.24542 8.62928 5.94332C8.62928 10.6717 8.78823 11.8949 9.68612 12.5602C10.584 13.2254 11.6398 12.8896 16.2777 12.8896Z" stroke="white" stroke-width="1.5" stroke-linecap="round" stroke-linejoin="round"/>
<path id="Stroke 3" fill-rule="evenodd" clip-rule="evenodd" d="M20.6921 8.95316C20.7458 5.91527 17.0142 1.01842 12.4669 1.10263C12.1132 1.10895 11.83 1.40369 11.8142 1.75632C11.6995 4.25421 11.8542 7.49106 11.9406 8.95842C11.9669 9.41527 12.3258 9.77421 12.7816 9.80053C14.29 9.88685 17.6448 10.0047 20.1069 9.63211C20.4416 9.58158 20.6869 9.29106 20.6921 8.95316Z" stroke="white" stroke-width="1.5" stroke-linecap="round" stroke-linejoin="round"/>
</g>
</svg>
