<svg width="16" height="16" viewBox="0 0 16 16" fill="none" xmlns="http://www.w3.org/2000/svg">
<g id="iconfinder_1_Instagram_colored_svg_1_5296765 1" clip-path="url(#clip0_294_713)">
<g id="Group">
<path id="Vector" d="M8 0C5.82731 0 5.55488 0.00921875 4.70159 0.0481563C3.85009 0.087 3.26853 0.222219 2.75966 0.42C2.23359 0.624437 1.78744 0.898 1.34272 1.34275C0.897969 1.78747 0.624406 2.23362 0.419969 2.75969C0.222188 3.26853 0.0869687 3.85009 0.048125 4.70159C0.0091875 5.55488 0 5.82731 0 8C0 10.1726 0.0091875 10.4451 0.048125 11.2983C0.0869687 12.1498 0.222188 12.7314 0.419969 13.2402C0.624406 13.7663 0.897969 14.2125 1.34272 14.6573C1.78744 15.102 2.23359 15.3755 2.75966 15.58C3.26853 15.7777 3.85009 15.913 4.70159 15.9518C5.55488 15.9907 5.82731 15.9999 8 15.9999C10.1726 15.9999 10.4451 15.9907 11.2983 15.9518C12.1498 15.913 12.7314 15.7777 13.2402 15.58C13.7663 15.3755 14.2125 15.102 14.6573 14.6573C15.102 14.2125 15.3755 13.7663 15.58 13.2402C15.7777 12.7314 15.913 12.1498 15.9518 11.2983C15.9907 10.4451 15.9999 10.1726 15.9999 8C15.9999 5.82731 15.9907 5.55488 15.9518 4.70159C15.913 3.85009 15.7777 3.26853 15.58 2.75969C15.3755 2.23362 15.102 1.78747 14.6573 1.34275C14.2125 0.898 13.7663 0.624437 13.2402 0.42C12.7314 0.222219 12.1498 0.087 11.2983 0.0481563C10.4451 0.00921875 10.1726 0 8 0V0ZM8 1.44147C10.1361 1.44147 10.3891 1.44959 11.2327 1.48809C12.0126 1.52369 12.4362 1.654 12.7181 1.76353C13.0915 1.90866 13.358 2.08203 13.638 2.36197C13.9179 2.64191 14.0913 2.90844 14.2364 3.28181C14.346 3.56372 14.4763 3.98731 14.5119 4.76728C14.5503 5.61087 14.5585 5.86391 14.5585 8C14.5585 10.1361 14.5503 10.3891 14.5119 11.2327C14.4763 12.0126 14.346 12.4362 14.2364 12.7181C14.0913 13.0915 13.9179 13.358 13.638 13.638C13.358 13.9179 13.0915 14.0913 12.7181 14.2364C12.4362 14.346 12.0126 14.4763 11.2327 14.5118C10.3892 14.5503 10.1362 14.5585 8 14.5585C5.86372 14.5585 5.61078 14.5503 4.76728 14.5118C3.98731 14.4763 3.56372 14.346 3.28181 14.2364C2.90841 14.0913 2.64191 13.9179 2.36194 13.638C2.082 13.358 1.90863 13.0915 1.76353 12.7181C1.65397 12.4362 1.52366 12.0126 1.48806 11.2327C1.44956 10.3891 1.44144 10.1361 1.44144 8C1.44144 5.86391 1.44956 5.61087 1.48806 4.76728C1.52366 3.98731 1.65397 3.56372 1.76353 3.28181C1.90863 2.90844 2.082 2.64191 2.36194 2.36197C2.64191 2.08203 2.90841 1.90866 3.28181 1.76353C3.56372 1.654 3.98731 1.52369 4.76728 1.48809C5.61087 1.44959 5.86391 1.44147 8 1.44147Z" fill="#7670E1"/>
<path id="Vector_2" d="M8.0134 10.6655C6.54062 10.6655 5.34671 9.47159 5.34671 7.99887C5.34671 6.52609 6.54062 5.33218 8.0134 5.33218C9.48612 5.33218 10.68 6.52609 10.68 7.99887C10.68 9.47159 9.48612 10.6655 8.0134 10.6655ZM8.0134 3.89075C5.74452 3.89075 3.90527 5.73 3.90527 7.99887C3.90527 10.2677 5.74452 12.1069 8.0134 12.1069C10.2822 12.1069 12.1215 10.2677 12.1215 7.99887C12.1215 5.73 10.2822 3.89075 8.0134 3.89075Z" fill="#7670E1"/>
<path id="Vector_3" d="M13.2325 3.73316C13.2325 4.26338 12.8027 4.69316 12.2725 4.69316C11.7423 4.69316 11.3125 4.26338 11.3125 3.73316C11.3125 3.20297 11.7423 2.77319 12.2725 2.77319C12.8027 2.77319 13.2325 3.20297 13.2325 3.73316Z" fill="#7670E1"/>
</g>
</g>
<defs>
<clipPath id="clip0_294_713">
<rect width="16" height="16" fill="white"/>
</clipPath>
</defs>
</svg>
