<svg width="16" height="16" viewBox="0 0 16 16" fill="none" xmlns="http://www.w3.org/2000/svg">
<g id="Group 4">
<path id="2" d="M7 12.8889C5.05011 12.5599 3.44011 10.9499 3.11111 9L6.11959e-07 9C0.366334 12.6688 3.33122 15.6337 7 16L7 12.8889Z" fill="white"/>
<path id="1" d="M3.20818 7.1775C3.59156 4.90531 5.59988 3.20818 7.97955 3.20818C10.6335 3.20818 12.7918 5.36648 12.7918 8.02045C12.7918 10.4001 11.0947 12.4084 8.8225 12.7918L8.8225 16C12.8696 15.5958 16 12.1718 16 8.02045C16 3.59797 12.402 -3.14545e-07 7.97955 -7.0117e-07C3.82816 -1.0641e-06 0.404232 3.13038 7.71287e-07 7.1775L3.20818 7.1775Z" fill="white"/>
</g>
</svg>
