<svg width="24" height="25" viewBox="0 0 24 25" fill="none" xmlns="http://www.w3.org/2000/svg">
<g id="vuesax/linear/like">
<g id="vuesax/linear/like_2">
<g id="like">
<path id="Vector" d="M7.48047 19.165L10.5805 21.565C10.9805 21.965 11.8805 22.165 12.4805 22.165H16.2805C17.4805 22.165 18.7805 21.265 19.0805 20.065L21.4805 12.765C21.9805 11.365 21.0805 10.165 19.5805 10.165H15.5805C14.9805 10.165 14.4805 9.66503 14.5805 8.96503L15.0805 5.76503C15.2805 4.86503 14.6805 3.86503 13.7805 3.56503C12.9805 3.26503 11.9805 3.66503 11.5805 4.26503L7.48047 10.365" stroke="#292D32" stroke-width="1.5" stroke-miterlimit="10"/>
<path id="Vector_2" d="M2.37988 19.1651V9.36509C2.37988 7.96509 2.97988 7.46509 4.37988 7.46509H5.37988C6.77988 7.46509 7.37988 7.96509 7.37988 9.36509V19.1651C7.37988 20.5651 6.77988 21.0651 5.37988 21.0651H4.37988C2.97988 21.0651 2.37988 20.5651 2.37988 19.1651Z" stroke="#292D32" stroke-width="1.5" stroke-linecap="round" stroke-linejoin="round"/>
</g>
</g>
</g>
</svg>
