<svg width="19" height="18" viewBox="0 0 19 18" fill="none" xmlns="http://www.w3.org/2000/svg">
<g id="Iconly/Light-Outline/Location">
<g id="Location">
<path id="Fill 1" fill-rule="evenodd" clip-rule="evenodd" d="M9.77246 6.42106C9.04871 6.42106 8.45996 6.99948 8.45996 7.71127C8.45996 8.42232 9.04871 9.00001 9.77246 9.00001C10.4962 9.00001 11.085 8.42232 11.085 7.71127C11.085 6.99948 10.4962 6.42106 9.77246 6.42106ZM9.77246 10.1053C8.42846 10.1053 7.33496 9.03169 7.33496 7.71127C7.33496 6.39011 8.42846 5.3158 9.77246 5.3158C11.1165 5.3158 12.21 6.39011 12.21 7.71127C12.21 9.03169 11.1165 10.1053 9.77246 10.1053Z" fill="#7670E1"/>
<g id="Group 5">
<mask id="mask0_27_4805" style="mask-type:luminance" maskUnits="userSpaceOnUse" x="3" y="1" width="13" height="15">
<path id="Clip 4" fill-rule="evenodd" clip-rule="evenodd" d="M3.58447 1.63159H15.9591V16H3.58447V1.63159Z" fill="white"/>
</mask>
<g mask="url(#mask0_27_4805)">
<path id="Fill 3" fill-rule="evenodd" clip-rule="evenodd" d="M9.77148 2.73685C6.97998 2.73685 4.70898 4.98938 4.70898 7.75696C4.70898 11.2783 8.92698 14.7091 9.77148 14.8918C10.616 14.7083 14.834 11.2776 14.834 7.75696C14.834 4.98938 12.563 2.73685 9.77148 2.73685ZM9.77148 16C8.42598 16 3.58398 11.9091 3.58398 7.75696C3.58398 4.37928 6.35973 1.63159 9.77148 1.63159C13.1832 1.63159 15.959 4.37928 15.959 7.75696C15.959 11.9091 11.117 16 9.77148 16Z" fill="#7670E1"/>
</g>
</g>
</g>
</g>
</svg>
