<svg width="140" height="36" viewBox="0 0 140 36" fill="none" xmlns="http://www.w3.org/2000/svg">
<g id="logo-rgb  2" clip-path="url(#clip0_294_748)">
<g id="Layer 1">
<g id="Group">
<path id="Vector" d="M76.8018 9.3998C76.8015 9.17095 76.7693 8.93838 76.721 8.71418C76.6545 8.40551 76.4404 8.15526 76.1518 8.10642C75.6495 8.02148 75.1318 8.01032 74.6203 8.00455C74.4432 8.0026 74.2491 8.08074 74.0902 8.1707C73.6623 8.41314 73.5857 8.84135 73.5853 9.27961C73.581 13.8294 73.5729 18.3792 73.5879 22.929C73.5932 24.5491 72.1759 25.8465 70.6373 25.8505C66.0117 25.8626 61.386 25.8542 56.7603 25.8555C55.9341 25.8558 55.2556 25.5102 54.7186 24.9182C54.1965 24.3425 53.9433 23.6523 53.9455 22.8534C53.9574 18.3723 53.9524 13.8912 53.9479 9.41013C53.9476 9.18118 53.9135 8.94945 53.869 8.72422C53.8074 8.4123 53.5918 8.19666 53.3078 8.10168C52.7866 7.92715 52.2415 7.9585 51.7033 8.02074C51.546 8.03897 51.3805 8.08577 51.2438 8.16345C50.8163 8.40607 50.732 8.83084 50.7316 9.26928C50.7269 13.8534 50.7304 18.4375 50.7276 23.0217C50.7267 24.5009 49.6675 25.5051 48.3585 25.7979C47.898 25.901 47.4009 25.8517 46.9204 25.8525C45.9958 25.8543 45.2811 25.4285 44.701 24.7378C44.5678 24.5793 44.5694 24.4553 44.6866 24.268C45.7933 22.4985 46.2844 20.5888 45.9267 18.5056C45.5641 16.3933 44.4987 14.6901 42.8446 13.3476C40.8702 11.745 38.5617 11.0783 36.0597 11.0332C34.0227 10.9965 31.9845 11.0236 29.9468 11.0217C29.1566 11.0209 28.4649 10.7236 27.8636 10.246C26.833 9.42734 26.3744 8.34057 26.4181 7.02282C26.4612 5.72367 27.0785 4.76008 28.1096 4.03455C28.7456 3.58717 29.4692 3.416 30.2491 3.4174C34.6426 3.42503 39.0363 3.42103 43.4298 3.42093C43.5158 3.42093 43.6022 3.42605 43.6876 3.41842C44.1427 3.37814 44.5802 3.22576 44.6767 2.74908C44.7803 2.23723 44.7629 1.69823 44.7673 1.17075C44.7687 1.01102 44.6917 0.835941 44.608 0.69277C44.3714 0.288281 43.9678 0.205206 43.542 0.204927C39.1741 0.202601 34.8064 0.202601 30.4387 0.205485C30.1215 0.205671 29.8024 0.21637 29.4875 0.251163C27.9743 0.418521 26.5901 0.917249 25.4685 1.9734C23.7983 3.54624 23.0662 5.50692 23.2208 7.78519C23.364 9.89564 24.3589 11.5532 26.006 12.8512C27.2307 13.8163 28.6519 14.2113 30.175 14.2493C31.7303 14.2879 33.2873 14.2525 34.8435 14.2602C35.582 14.2638 36.324 14.2526 37.0582 14.3176C38.7851 14.4701 40.3013 15.1286 41.5067 16.3894C42.8107 17.7534 43.1719 19.3615 42.5953 21.1632C42.2306 22.3031 41.5383 23.232 40.6723 24.0396C39.4022 25.2241 37.9088 25.8548 36.1575 25.8597C34.121 25.8653 32.0846 25.8895 30.0482 25.897C28.5276 25.9025 25.9904 25.9 24.2507 25.8972C23.0438 25.8953 21.8871 25.4153 21.0346 24.5625C19.2968 22.8244 16.2693 19.7968 14.5071 18.0358C14.4549 17.9838 14.4094 17.9251 14.3565 17.8649C15.8979 16.3011 17.4339 14.7428 18.9723 13.1822C20.5197 11.6122 20.5143 9.09141 18.9601 7.52815L14.8454 3.3894C13.2699 1.80474 10.7033 1.80484 9.12797 3.3894L5.06475 7.4768C3.50055 9.05029 3.50679 11.5909 5.07863 13.1568L9.83386 17.8936C9.76407 17.9666 9.70118 18.0342 9.63642 18.0999C6.42453 21.3595 3.21301 24.6191 0 27.8774L0.865679 28.7417C1.63399 29.5088 2.88122 29.504 3.64357 28.7309C4.56506 27.7964 5.48422 26.8643 6.41055 25.9249C6.56606 26.1124 6.71356 26.2902 6.85425 26.4599C7.12893 26.1738 7.36959 25.9231 7.64707 25.6341C7.50572 25.5169 7.3231 25.3653 7.12427 25.2005C8.80848 23.492 10.4461 21.8306 12.063 20.1904L15.1552 23.2692C15.9212 24.0318 15.922 25.2702 15.1572 26.0339C13.9694 27.2198 12.7712 28.4161 11.5579 29.6274C11.4483 29.4869 11.3224 29.3257 11.2 29.1689C10.912 29.4697 10.6719 29.7205 10.3854 30.02C10.512 30.1118 10.6842 30.2368 10.8652 30.368C9.44933 31.7813 8.06588 33.1621 6.67927 34.5462L7.56228 35.4279C8.3264 36.1908 9.56524 36.1908 10.3294 35.4279C13.1199 32.6416 15.9106 29.8555 18.7015 27.0697C18.7535 27.0178 18.8122 26.9726 18.8757 26.9173C19.1013 27.1425 19.418 27.4544 19.7403 27.7703C20.5804 28.5938 21.707 29.0607 22.8843 29.073C24.3819 29.0885 26.4488 29.1068 27.6935 29.1042C31.1315 29.0969 34.5695 29.0888 38.0074 29.0688C38.8929 29.0636 39.7604 28.8873 40.534 28.4571C41.212 28.0803 41.8345 27.6038 42.5013 27.158C43.8412 28.3906 45.4337 29.0805 47.378 29.0784C49.3185 29.0762 50.9257 28.4294 52.2884 27.0971C52.3327 27.1365 52.3585 27.1589 52.3839 27.1818C53.7245 28.3965 55.2597 29.0892 57.1094 29.0798C61.5717 29.0572 66.0341 29.0701 70.4963 29.0748C71.2439 29.0757 71.9709 28.9535 72.6657 28.7002C74.99 27.8528 76.8008 25.6094 76.8038 22.8947C76.8087 18.3965 76.8063 13.8982 76.8017 9.39989L76.8018 9.3998ZM8.19027 11.6634C7.41981 10.8954 7.4254 9.64726 8.20257 8.88619C9.01244 8.09312 9.82296 7.2994 10.6296 6.50958C11.3923 5.76265 12.6131 5.76209 13.3765 6.50846C14.2047 7.31819 15.0414 8.13628 15.8849 8.96098C16.6605 9.71926 16.6722 10.9623 15.9109 11.7349C14.6353 13.0297 13.3733 14.3106 12.1209 15.5817L8.19027 11.6634Z" fill="#C6CEDC"/>
<path id="Vector_2" d="M82.9645 12.196C82.9645 14.4193 82.9938 16.6432 82.955 18.8657C82.9253 20.5597 83.5446 21.9873 84.5634 23.2847C85.5017 24.4794 86.7117 25.2743 88.1801 25.6463C88.6989 25.7777 89.2474 25.8469 89.7827 25.8499C92.8606 25.8677 95.9385 25.8709 99.0164 25.8505C100.718 25.8392 102.161 25.1649 103.389 24.0059C104.237 23.2047 104.915 22.2876 105.275 21.1659C105.853 19.3647 105.493 17.7563 104.19 16.3917C102.985 15.1301 101.468 14.4839 99.7429 14.3131C99.342 14.2733 98.9371 14.2613 98.5339 14.2602C96.6683 14.2549 94.8022 14.2808 92.937 14.2508C91.3382 14.2252 89.8576 13.8063 88.5885 12.7744C87.0147 11.4946 86.0552 9.88033 85.9086 7.84031C85.7346 5.42081 86.5334 3.37585 88.3806 1.77492C89.3404 0.943059 90.4902 0.508057 91.7314 0.31158C92.1702 0.242181 92.6193 0.20869 93.0638 0.207946C97.4571 0.200504 101.85 0.202178 106.244 0.20562C106.66 0.205899 107.055 0.293625 107.286 0.688533C107.366 0.824262 107.426 0.986783 107.441 1.14233C107.494 1.68757 107.552 2.24267 107.366 2.7707C107.203 3.23147 106.805 3.38739 106.348 3.41939C106.263 3.42535 106.176 3.42097 106.09 3.42097C101.705 3.42097 97.3207 3.42479 92.9359 3.41744C92.1659 3.41614 91.4507 3.58024 90.8175 4.01831C89.7625 4.74822 89.1385 5.72288 89.099 7.04268C89.0598 8.35113 89.519 9.42886 90.54 10.242C91.1405 10.7203 91.8313 11.0204 92.6217 11.0213C94.6678 11.0238 96.7146 10.9946 98.76 11.0337C101.252 11.0813 103.553 11.7474 105.52 13.3436C107.182 14.6917 108.246 16.4021 108.612 18.5238C108.953 20.505 108.539 22.3556 107.505 24.0419C106.232 26.1173 104.482 27.6753 102.149 28.4943C101.009 28.8945 99.8253 29.0921 98.6128 29.0922C95.7068 29.0925 92.8006 29.1128 89.8949 29.0845C88.1713 29.0677 86.5198 28.6822 85.0307 27.7836C82.8055 26.4408 81.1692 24.5825 80.2837 22.1206C79.9052 21.0681 79.7259 19.9688 79.7266 18.8439C79.729 14.2085 79.7263 9.57306 79.7298 4.93753C79.7302 4.50774 79.8155 4.10222 80.2086 3.83486C80.6061 3.56442 82.0815 3.56377 82.4806 3.83225C82.8664 4.0919 82.9604 4.48699 82.9615 4.90795C82.9675 7.3373 82.9645 9.76656 82.9645 12.1959V12.196Z" fill="#C6CEDC"/>
<path id="Vector_3" d="M122.137 25.8134C121.773 26.4897 121.341 27.1223 120.749 27.6395C119.761 28.5036 118.591 28.9604 117.306 29.0403C114.807 29.1956 112.85 28.2024 111.505 26.0818C110.965 25.2307 110.729 24.2629 110.727 23.2672C110.713 15.9104 110.719 8.55347 110.72 1.19666C110.72 0.438666 111.16 -0.00173263 111.92 0.000127942C112.297 0.00105823 112.674 0.0128729 113.049 0.0470145C113.582 0.0956685 113.896 0.540997 113.929 1.08438C113.934 1.16996 113.93 1.25602 113.93 1.34188C113.93 8.58715 113.947 15.8324 113.918 23.0776C113.911 24.9246 116.164 26.5829 117.967 25.5589C118.896 25.0313 119.51 24.2659 119.504 23.124C119.497 21.7763 119.505 20.4285 119.502 19.0808C119.496 16.215 120.427 13.7176 122.458 11.668C123.895 10.2184 125.607 9.26049 127.63 8.87805C130.245 8.38379 132.736 8.71237 135.018 10.0986C137.171 11.4067 138.725 13.2449 139.478 15.6825C140.304 18.3595 140.179 21.0108 138.886 23.4989C137.373 26.4108 134.987 28.2771 131.704 28.8922C129.237 29.3546 126.889 28.9993 124.684 27.7991C124.211 27.542 123.771 27.2169 123.347 26.8847C122.929 26.558 122.55 26.1824 122.137 25.8136V25.8134ZM136.79 18.896C136.724 18.3442 136.701 17.7832 136.584 17.2423C136.226 15.5825 135.233 14.3198 133.954 13.2662C132.931 12.4244 131.738 11.9783 130.415 11.9045C129.582 11.8579 128.75 11.87 127.935 12.0885C126.155 12.5647 124.884 13.7401 123.84 15.1644C122.665 16.7673 122.523 18.6137 122.884 20.4986C123.227 22.2956 124.336 23.6166 125.78 24.6611C127.471 25.8853 129.39 26.0953 131.382 25.7106C133.021 25.3939 134.341 24.5017 135.358 23.1879C136.331 21.9305 136.787 20.4916 136.79 18.8962L136.79 18.896Z" fill="#C6CEDC"/>
<path id="Vector_4" d="M66.9804 4.9405C64.8661 4.9405 62.7518 4.94078 60.6375 4.94031C59.9722 4.94013 59.6028 4.5709 59.6019 3.90695C59.6014 3.50367 59.5988 3.1003 59.6027 2.69702C59.6079 2.15029 59.9985 1.75054 60.5428 1.75026C64.8316 1.74785 69.1204 1.74794 73.4091 1.75017C73.955 1.75045 74.3479 2.14778 74.3535 2.69255C74.3578 3.10439 74.3552 3.51632 74.3542 3.92825C74.3528 4.55834 73.9753 4.93985 73.3491 4.94013C71.2262 4.94106 69.1032 4.9405 66.9804 4.9405Z" fill="#C6CEDC"/>
<path id="Vector_5" d="M47.606 35.8972C45.5003 35.8972 43.3946 35.8975 41.2889 35.897C40.626 35.8968 40.2571 35.5259 40.2563 34.8608C40.2558 34.4575 40.253 34.0541 40.257 33.6508C40.2625 33.1054 40.6547 32.7072 41.1999 32.7069C45.4887 32.7046 49.7775 32.7046 54.0662 32.7069C54.611 32.7072 55.0025 33.1061 55.0078 33.652C55.0118 34.0725 55.0102 34.493 55.0083 34.9135C55.0058 35.5069 54.6192 35.8961 54.0262 35.8966C51.8861 35.898 49.7459 35.8971 47.6059 35.8971L47.606 35.8972Z" fill="#C6CEDC"/>
<path id="Vector_6" d="M7.52148 27.0227C7.75228 26.7826 7.99444 26.5309 8.21423 26.3024C8.50959 26.5876 8.80412 26.8719 9.091 27.1487C8.84893 27.3958 8.60566 27.6441 8.38204 27.8723C8.09068 27.5846 7.79542 27.2931 7.52148 27.0227Z" fill="#C6CEDC"/>
<path id="Vector_7" d="M9.82277 29.3354C9.53449 29.0526 9.24267 28.7664 8.94824 28.4776C9.19292 28.243 9.44411 28.0021 9.68348 27.7726C9.96263 28.0448 10.2557 28.3305 10.5314 28.5993C10.2907 28.8493 10.0496 29.0998 9.82268 29.3354H9.82277Z" fill="#C6CEDC"/>
</g>
</g>
</g>
<defs>
<clipPath id="clip0_294_748">
<rect width="140" height="36" fill="white"/>
</clipPath>
</defs>
</svg>
