<svg width="169" height="43" viewBox="0 0 169 43" fill="none" xmlns="http://www.w3.org/2000/svg">
<g id="logo" clip-path="url(#clip0_478_1875)">
<g id="Layer 1">
<g id="Group">
<path id="Vector" d="M92.7107 11.227C92.7104 10.9536 92.6715 10.6758 92.6132 10.408C92.5329 10.0393 92.2744 9.74042 91.9261 9.68209C91.3198 9.58064 90.6949 9.5673 90.0774 9.56041C89.8636 9.55808 89.6293 9.65142 89.4375 9.75887C88.9209 10.0484 88.8285 10.5599 88.828 11.0834C88.8227 16.5178 88.813 21.9524 88.831 27.3868C88.8374 29.3219 87.1266 30.8716 85.2693 30.8765C79.6855 30.8909 74.1016 30.8808 68.5177 30.8823C67.5204 30.8827 66.7014 30.47 66.0532 29.7628C65.4229 29.0752 65.1173 28.2507 65.1199 27.2966C65.1343 21.9442 65.1282 16.5917 65.1228 11.2393C65.1225 10.9658 65.0813 10.689 65.0275 10.42C64.9532 10.0474 64.6929 9.78987 64.3501 9.67642C63.7209 9.46796 63.063 9.50541 62.4132 9.57975C62.2233 9.60153 62.0236 9.65742 61.8586 9.7502C61.3426 10.04 61.2408 10.5474 61.2403 11.0711C61.2346 16.5465 61.2389 22.022 61.2355 27.4976C61.2344 29.2644 59.9557 30.4639 58.3756 30.8136C57.8198 30.9367 57.2196 30.8778 56.6397 30.8788C55.5235 30.8809 54.6608 30.3723 53.9604 29.5474C53.7997 29.358 53.8016 29.2099 53.9431 28.9862C55.2791 26.8727 55.8719 24.5916 55.4401 22.1033C55.0024 19.5803 53.7162 17.5459 51.7196 15.9423C49.3362 14.0281 46.5495 13.2319 43.5292 13.178C41.0702 13.1342 38.6098 13.1665 36.15 13.1642C35.1961 13.1633 34.3612 12.8082 33.6353 12.2377C32.3912 11.2598 31.8376 9.96177 31.8904 8.38779C31.9425 6.83603 32.6876 5.68507 33.9324 4.81847C34.7 4.2841 35.5736 4.07964 36.515 4.08131C41.8186 4.09042 47.1223 4.08564 52.4259 4.08553C52.5298 4.08553 52.6341 4.09164 52.7372 4.08253C53.2866 4.03442 53.8147 3.85241 53.9312 3.28304C54.0563 2.67167 54.0352 2.02786 54.0405 1.39782C54.0422 1.20703 53.9493 0.997906 53.8482 0.826896C53.5626 0.343756 53.0754 0.244528 52.5614 0.244194C47.2888 0.241416 42.0163 0.241416 36.7439 0.244861C36.3609 0.245083 35.9758 0.257862 35.5956 0.29942C33.7689 0.499321 32.098 1.09502 30.7442 2.35654C28.7279 4.23521 27.8442 6.57713 28.0308 9.2984C28.2037 11.8192 29.4047 13.7991 31.3929 15.3494C32.8714 16.5023 34.587 16.9741 36.4256 17.0194C38.303 17.0655 40.1826 17.0232 42.0611 17.0324C42.9526 17.0367 43.8482 17.0234 44.7345 17.101C46.8191 17.2832 48.6494 18.0697 50.1045 19.5757C51.6787 21.2049 52.1146 23.1257 51.4186 25.2777C50.9784 26.6392 50.1427 27.7487 49.0973 28.7134C47.5641 30.1282 45.7614 30.8816 43.6472 30.8873C41.189 30.8941 38.7307 30.923 36.2725 30.9319C34.4369 30.9386 31.3741 30.9356 29.274 30.9322C27.8171 30.9299 26.4209 30.3565 25.3917 29.3379C23.294 27.2619 19.6394 23.6456 17.5121 21.5422C17.4491 21.48 17.3941 21.41 17.3304 21.338C19.191 19.4702 21.0452 17.6089 22.9022 15.7448C24.7702 13.8696 24.7637 10.8586 22.8875 8.99138L17.9205 4.04786C16.0187 2.15509 12.9204 2.1552 11.0188 4.04786L6.11388 8.93004C4.22566 10.8095 4.23319 13.8441 6.13063 15.7144L11.8709 21.3723C11.7866 21.4596 11.7107 21.5402 11.6325 21.6188C7.75532 25.5121 3.87856 29.4056 0 33.2974L1.045 34.3298C1.97246 35.2461 3.47804 35.2403 4.39831 34.3169C5.51068 33.2007 6.62023 32.0873 7.73845 30.9652C7.92617 31.1893 8.10422 31.4016 8.27406 31.6043C8.60563 31.2626 8.89615 30.9631 9.2311 30.6179C9.06048 30.4779 8.84003 30.2969 8.60001 30.1C10.6331 28.0593 12.6099 26.0748 14.5617 24.1157L18.2945 27.7932C19.2192 28.7041 19.2202 30.1833 18.2969 31.0955C16.863 32.512 15.4166 33.9409 13.9521 35.3877C13.8197 35.2199 13.6678 35.0274 13.52 34.84C13.1723 35.1994 12.8825 35.499 12.5366 35.8566C12.6895 35.9663 12.8973 36.1155 13.1158 36.2723C11.4067 37.9604 9.73667 39.6098 8.06283 41.263L9.12875 42.316C10.0511 43.2273 11.5466 43.2273 12.469 42.316C15.8376 38.9879 19.2063 35.6602 22.5754 32.3327C22.6381 32.2707 22.709 32.2166 22.7857 32.1506C23.058 32.4197 23.4403 32.7921 23.8294 33.1695C24.8434 34.1531 26.2035 34.7108 27.6246 34.7255C29.4324 34.744 31.9275 34.7659 33.43 34.7628C37.5801 34.754 41.7303 34.7444 45.8804 34.7205C46.9492 34.7142 47.9965 34.5037 48.9303 33.9899C49.7487 33.5397 50.5002 32.9706 51.3051 32.4381C52.9226 33.9104 54.8449 34.7345 57.192 34.7319C59.5344 34.7294 61.4746 33.9568 63.1195 32.3654C63.1731 32.4124 63.2042 32.4392 63.2348 32.4666C64.8531 33.9174 66.7063 34.7448 68.9392 34.7336C74.3258 34.7067 79.7125 34.722 85.0991 34.7277C86.0015 34.7287 86.8792 34.5828 87.7179 34.2802C90.5237 33.268 92.7095 30.5884 92.7131 27.3459C92.719 21.973 92.7161 16.6001 92.7106 11.2271L92.7107 11.227ZM9.88682 13.9307C8.95677 13.0134 8.96352 11.5225 9.90167 10.6135C10.8793 9.6662 11.8577 8.71814 12.8314 7.77475C13.7521 6.88259 15.2259 6.88192 16.1474 7.77342C17.1472 8.74059 18.1572 9.71776 19.1754 10.7028C20.1116 11.6085 20.1257 13.0933 19.2067 14.0161C17.6669 15.5627 16.1434 17.0926 14.6317 18.611L9.88682 13.9307Z" fill="white"/>
<path id="Vector_2" d="M100.149 14.5675C100.149 17.2231 100.184 19.8794 100.137 22.5341C100.102 24.5575 100.849 26.2627 102.079 27.8123C103.212 29.2394 104.672 30.1888 106.445 30.6332C107.071 30.7902 107.733 30.8727 108.379 30.8764C112.095 30.8976 115.81 30.9014 119.526 30.8771C121.58 30.8636 123.322 30.0581 124.804 28.6738C125.828 27.7168 126.647 26.6214 127.081 25.2816C127.779 23.1301 127.344 21.209 125.771 19.5791C124.317 18.0722 122.485 17.3002 120.403 17.0962C119.919 17.0488 119.43 17.0345 118.943 17.0331C116.691 17.0268 114.439 17.0577 112.187 17.0219C110.257 16.9912 108.47 16.491 106.938 15.2583C105.038 13.7297 103.88 11.8016 103.703 9.36489C103.493 6.47494 104.457 4.03235 106.687 2.12012C107.846 1.12651 109.233 0.606922 110.732 0.372241C111.262 0.289347 111.804 0.249345 112.34 0.248456C117.644 0.239567 122.947 0.241567 128.25 0.245678C128.752 0.246012 129.229 0.350796 129.509 0.82249C129.605 0.984611 129.678 1.17873 129.696 1.36452C129.76 2.01578 129.829 2.67882 129.604 3.30953C129.409 3.85989 128.928 4.04613 128.376 4.08435C128.273 4.09146 128.169 4.08624 128.065 4.08624C122.772 4.08624 117.479 4.0908 112.186 4.08202C111.256 4.08046 110.393 4.27647 109.629 4.79973C108.355 5.67156 107.602 6.83574 107.554 8.41216C107.507 9.97503 108.061 11.2623 109.294 12.2336C110.018 12.8049 110.852 13.1633 111.806 13.1644C114.277 13.1673 116.747 13.1326 119.216 13.1792C122.225 13.2361 125.002 14.0317 127.377 15.9383C129.383 17.5485 130.667 19.5915 131.108 22.1258C131.521 24.4921 131.02 26.7026 129.772 28.7168C128.236 31.1957 126.124 33.0566 123.307 34.0349C121.931 34.5129 120.502 34.749 119.039 34.7491C115.531 34.7494 112.023 34.7737 108.515 34.7399C106.434 34.7198 104.441 34.2594 102.643 33.1861C99.957 31.5821 97.9817 29.3625 96.9128 26.4219C96.4558 25.1647 96.2394 23.8517 96.2402 22.5081C96.2432 16.9713 96.2399 11.4346 96.2442 5.89768C96.2446 5.38432 96.3475 4.89995 96.8221 4.5806C97.302 4.25758 99.083 4.25681 99.5648 4.57749C100.031 4.88762 100.144 5.35954 100.145 5.86235C100.153 8.76407 100.149 11.6657 100.149 14.5674V14.5675Z" fill="white"/>
<path id="Vector_3" d="M147.437 30.8325C146.997 31.6403 146.476 32.3959 145.762 33.0137C144.569 34.0458 143.156 34.5914 141.605 34.6868C138.589 34.8724 136.227 33.686 134.603 31.1531C133.951 30.1366 133.665 28.9805 133.663 27.7912C133.646 19.0039 133.654 10.2165 133.655 1.4292C133.655 0.523816 134.186 -0.00221534 135.104 7.01344e-06C135.558 0.00111819 136.014 0.0152301 136.466 0.0560103C137.11 0.114125 137.489 0.646045 137.528 1.29508C137.534 1.39731 137.53 1.5001 137.53 1.60266C137.53 10.2567 137.551 18.9108 137.516 27.5648C137.507 29.7709 140.226 31.7517 142.403 30.5285C143.524 29.8983 144.266 28.9842 144.258 27.6202C144.25 26.0104 144.259 24.4006 144.256 22.7908C144.248 19.3678 145.372 16.3848 147.825 13.9366C149.559 12.2052 151.625 11.061 154.068 10.6042C157.224 10.0138 160.231 10.4063 162.986 12.0621C165.586 13.6245 167.461 15.8202 168.37 18.7317C169.367 21.9293 169.217 25.0961 167.656 28.068C165.829 31.5461 162.949 33.7752 158.986 34.5099C156.007 35.0623 153.173 34.638 150.511 33.2043C149.941 32.8973 149.41 32.5089 148.897 32.1121C148.393 31.7219 147.935 31.2733 147.437 30.8327V30.8325ZM165.126 22.5701C165.046 21.911 165.017 21.2409 164.876 20.5948C164.444 18.6123 163.246 17.104 161.701 15.8456C160.467 14.8401 159.026 14.3073 157.43 14.2191C156.425 14.1635 155.42 14.178 154.435 14.4389C152.288 15.0077 150.753 16.4116 149.493 18.1129C148.074 20.0274 147.903 22.2329 148.338 24.4842C148.753 26.6307 150.092 28.2086 151.834 29.4562C153.876 30.9184 156.193 31.1692 158.597 30.7097C160.576 30.3315 162.168 29.2657 163.396 27.6965C164.571 26.1947 165.121 24.4759 165.125 22.5703L165.126 22.5701Z" fill="white"/>
<path id="Vector_4" d="M80.8557 5.90254C78.3034 5.90254 75.7512 5.90288 73.1989 5.90232C72.3958 5.9021 71.95 5.46107 71.9489 4.66802C71.9482 4.18633 71.9452 3.70452 71.9498 3.22283C71.9561 2.56979 72.4276 2.09232 73.0846 2.09198C78.2618 2.08909 83.439 2.0892 88.6161 2.09187C89.2751 2.09221 89.7494 2.56679 89.7561 3.21749C89.7613 3.70941 89.7582 4.20144 89.757 4.69347C89.7553 5.44607 89.2996 5.90177 88.5437 5.9021C85.981 5.90321 83.4183 5.90254 80.8557 5.90254Z" fill="white"/>
<path id="Vector_5" d="M57.4676 42.8752C54.9257 42.8752 52.3838 42.8755 49.842 42.8749C49.0417 42.8747 48.5964 42.4317 48.5954 41.6372C48.5949 41.1555 48.5915 40.6737 48.5963 40.192C48.603 39.5405 49.0764 39.0649 49.7346 39.0645C54.9117 39.0618 60.0889 39.0618 65.266 39.0645C65.9237 39.0648 66.3963 39.5413 66.4027 40.1935C66.4075 40.6957 66.4055 41.198 66.4032 41.7002C66.4002 42.409 65.9336 42.8738 65.2177 42.8744C62.6342 42.8762 60.0508 42.8751 57.4675 42.8751L57.4676 42.8752Z" fill="white"/>
<path id="Vector_6" d="M9.08008 32.2782C9.35868 31.9916 9.651 31.6909 9.91632 31.418C10.2729 31.7585 10.6284 32.0981 10.9747 32.4288C10.6825 32.7239 10.3888 33.0205 10.1189 33.2931C9.76718 32.9495 9.41075 32.6013 9.08008 32.2782Z" fill="white"/>
<path id="Vector_7" d="M11.8584 35.0385C11.5104 34.7007 11.1582 34.3589 10.8027 34.014C11.0981 33.7338 11.4013 33.446 11.6903 33.1719C12.0272 33.497 12.381 33.8382 12.7138 34.1594C12.4233 34.4579 12.1322 34.7572 11.8583 35.0385H11.8584Z" fill="white"/>
</g>
</g>
</g>
<defs>
<clipPath id="clip0_478_1875">
<rect width="169" height="43" fill="white"/>
</clipPath>
</defs>
</svg>
