<svg width="234" height="189" viewBox="0 0 234 189" fill="none" xmlns="http://www.w3.org/2000/svg">
<g id="Mask group" opacity="0.6">
<mask id="mask0_492_1958" style="mask-type:alpha" maskUnits="userSpaceOnUse" x="6" y="-4" width="228" height="193">
<g id="Group 39077">
<path id="Vector" d="M226.462 105.914L195.488 114.278C184.113 117.342 172.427 110.549 169.372 99.0889C166.325 87.6273 173.082 75.8531 184.453 72.775L215.427 64.4109M193.355 92.1184L190.971 92.7623M100.67 83.2178L141.978 72.0631M96.8189 46.7567L162.951 28.8987C185.125 22.9108 207.918 36.173 213.86 58.5198L228.573 113.86C234.515 136.207 221.355 159.177 199.181 165.165L133.049 183.023C110.875 189.011 88.0819 175.749 82.1403 153.402L67.4266 98.062C61.4851 75.7152 74.6447 52.7445 96.8189 46.7567Z" stroke="#F2F2F2" stroke-width="8" stroke-linecap="round" stroke-linejoin="round"/>
<path id="Rectangle 2799" opacity="0.53" d="M142 0.000303898L43.4416 26.6351C19.4495 33.1189 5.25613 57.8245 11.7399 81.8167L27.7634 141.109C34.2471 165.101 58.9527 179.295 82.9449 172.811L90 170.904" stroke="#F2F2F2" stroke-width="8"/>
</g>
</mask>
<g mask="url(#mask0_492_1958)">
<rect id="Rectangle" x="-31" y="45.4609" width="278" height="150" rx="40" fill="white"/>
</g>
</g>
</svg>
