<svg width="25" height="25" viewBox="0 0 25 25" fill="none" xmlns="http://www.w3.org/2000/svg">
<g id="vuesax/linear/music-filter">
<g id="vuesax/linear/music-filter_2">
<g id="music-filter">
<path id="Vector" d="M2.19238 3.10486H22.1924" stroke="#BAC6D3" stroke-width="1.5" stroke-miterlimit="10" stroke-linecap="round" stroke-linejoin="round"/>
<path id="Vector_2" d="M2.19238 9.10486H11.1924" stroke="#BAC6D3" stroke-width="1.5" stroke-miterlimit="10" stroke-linecap="round" stroke-linejoin="round"/>
<path id="Vector_3" d="M2.19238 15.1049H8.19238" stroke="#BAC6D3" stroke-width="1.5" stroke-miterlimit="10" stroke-linecap="round" stroke-linejoin="round"/>
<path id="Vector_4" d="M2.19238 21.1049H6.19238" stroke="#BAC6D3" stroke-width="1.5" stroke-miterlimit="10" stroke-linecap="round" stroke-linejoin="round"/>
<g id="Group">
<path id="Vector_5" d="M12.0323 22.1049C13.2363 22.1049 14.2123 21.1288 14.2123 19.9249C14.2123 18.7209 13.2363 17.7449 12.0323 17.7449C10.8283 17.7449 9.85229 18.7209 9.85229 19.9249C9.85229 21.1288 10.8283 22.1049 12.0323 22.1049Z" stroke="#BAC6D3" stroke-width="1.5" stroke-linecap="round" stroke-linejoin="round"/>
<path id="Vector_6" d="M22.1924 18.4749V7.5603L15.5524 9.40488C14.7624 9.62488 14.2124 10.2449 14.2124 11.1549V12.6749V13.6949V19.9249" stroke="#BAC6D3" stroke-width="1.5" stroke-linecap="round" stroke-linejoin="round"/>
<path id="Vector_7" d="M20.0123 20.6549C21.2163 20.6549 22.1923 19.6789 22.1923 18.4749C22.1923 17.2709 21.2163 16.2949 20.0123 16.2949C18.8083 16.2949 17.8323 17.2709 17.8323 18.4749C17.8323 19.6789 18.8083 20.6549 20.0123 20.6549Z" stroke="#BAC6D3" stroke-width="1.5" stroke-linecap="round" stroke-linejoin="round"/>
</g>
</g>
</g>
</g>
</svg>
