<svg width="160" height="38" viewBox="0 0 160 38" fill="none" xmlns="http://www.w3.org/2000/svg">
<path d="M2.38867 19.2383C2.48242 17.2695 2.63086 15.4023 2.83398 13.6367C2.83398 13.6367 2.98242 12.332 3.2793 9.72266C3.38867 8.87891 3.48242 8.01953 3.56055 7.14453C6.91992 6.20703 10.3887 5.62109 13.9668 5.38672L17.3652 19.4492L18.4668 30.4883L19.4746 30.3945L21.6543 7.09766C23.873 6.31641 26.5605 5.76172 29.7168 5.43359C30.6855 5.33984 31.5918 5.29297 32.4355 5.29297L35.3887 19.918L37.498 35.7148L31.4277 36.3477L29.5762 20.457L28.0293 10.3086L26.5996 10.4961L25.6387 20.6914L23.3652 35.082C20.6777 35.582 17.709 35.8711 14.459 35.9492L9.56055 10.6133L8.01367 10.8477L7.82617 20.2461L6.41992 36.207L0.560547 35.4805L2.38867 19.2383ZM47.9512 25.4727C47.1699 25.4102 46.3809 25.3164 45.584 25.1914C44.4746 22.3945 43.4199 19.4023 42.4199 16.2148C42.4199 16.2148 41.4121 13.0039 39.3965 6.58203L45.4902 5.03516L46.6152 8.83203L49.3809 21.3711C49.5527 21.3867 49.7246 21.3945 49.8965 21.3945C50.0684 21.3945 50.2871 21.3945 50.5527 21.3945C51.2871 21.3945 51.9512 21.332 52.5449 21.207L55.7559 5.33984L62.084 5.99609L61.1465 9.65234C60.8496 10.793 60.5527 11.8711 60.2559 12.8867C60.2559 12.8867 59.9512 13.8711 59.3418 15.8398C59.0449 16.8086 58.7246 17.7773 58.3809 18.7461L55.9668 25.1914C55.4199 25.2852 54.6855 25.3711 53.7637 25.4492L53.0605 35.7617L48.0215 36.1367L47.9512 25.4727ZM157.709 5.33984L158.248 5.36328C158.311 5.37891 158.365 5.38672 158.412 5.38672L158.998 10.7539L156.936 10.8477C151.373 11.0977 147.982 11.4336 146.764 11.8555C146.545 13.0586 146.436 14.3008 146.436 15.582V15.9805C147.029 16.5898 147.686 17.1836 148.404 17.7617L150.584 19.4492L152.811 17.082C152.857 16.6602 152.881 16.2461 152.881 15.8398C152.881 15.4336 152.873 15.0508 152.857 14.6914L152.811 13.5898C153.123 13.543 153.404 13.5117 153.654 13.4961C153.92 13.4648 154.209 13.4336 154.521 13.4023C154.85 13.3555 155.178 13.3164 155.506 13.2852L158.178 13.0039C158.1 14.1133 158.037 15.1211 157.99 16.0273C157.943 16.9336 157.85 17.6211 157.709 18.0898C157.443 18.9492 157.021 19.5586 156.443 19.918L153.748 21.6523L157.287 24.1602C158.49 25.0195 159.092 25.9258 159.092 26.8789C159.092 28.7695 158.779 30.8086 158.154 32.9961C157.779 34.2773 157.326 35.1992 156.795 35.7617C156.076 36.2461 154.295 36.4883 151.451 36.4883H150.35C147.85 36.4883 145.662 36.2305 143.787 35.7148C142.803 35.4648 142.209 34.8398 142.006 33.8398C141.443 31.8086 141.162 29.9648 141.162 28.3086C141.162 27.0117 141.303 26.1211 141.584 25.6367C141.865 25.1523 142.154 24.8008 142.451 24.582L145.709 22.2852L143.014 20.5039C142.201 19.9727 141.693 19.5508 141.49 19.2383C141.193 18.7227 141.045 18.0664 141.045 17.2695C141.045 16.457 141.061 15.6211 141.092 14.7617C141.139 13.9023 141.209 13.0586 141.303 12.2305C141.521 10.2305 141.764 9.01953 142.029 8.59766C142.311 8.17578 142.6 7.87891 142.896 7.70703C143.209 7.51953 143.678 7.33984 144.303 7.16797C144.928 6.98047 145.771 6.77734 146.834 6.55859C147.896 6.32422 149.037 6.12109 150.256 5.94922C153.131 5.54297 155.615 5.33984 157.709 5.33984ZM146.67 26.9727C146.67 28.457 146.795 29.8477 147.045 31.1445C148.045 31.3945 149.178 31.5195 150.443 31.5195C151.709 31.5195 152.529 31.4961 152.904 31.4492C153.248 29.9805 153.42 28.6367 153.42 27.418V27.1602L149.436 24.3008L146.67 26.9727Z" fill="#7670E1"/>
<path d="M83.0371 10.8008C81.209 10.8789 78.9824 11.0195 76.3574 11.2227L76.5684 20.9727L76.0293 35.7617L70.8027 36.1836L70.5215 11.4336C69.1621 11.4648 67.9043 11.5117 66.748 11.5742C65.6074 11.6367 64.6387 11.668 63.8418 11.668L64.2637 6.58203C69.6699 5.87891 75.7246 5.52734 82.4277 5.52734L83.0371 10.8008ZM92.9746 0.488281C93.1465 1.09766 93.2324 1.78516 93.2324 2.55078C93.2324 3.30078 93.209 3.94141 93.1621 4.47266C93.1152 4.98828 93.0605 5.47266 92.998 5.92578C92.8418 6.91016 92.6621 7.58203 92.459 7.94141L87.0684 7.70703C87.334 6.33203 87.4668 4.13672 87.4668 1.12109L92.9746 0.488281ZM92.7871 12.3008C92.8652 13.9102 92.9043 15.2617 92.9043 16.3555C92.9043 17.4492 92.8809 18.7305 92.834 20.1992L92.2949 35.7617L87.3027 36.1836L86.834 13.0508L92.7871 12.3008ZM100.732 34.6602C99.873 34.3789 99.373 33.7305 99.2324 32.7148C98.9199 30.5586 98.7637 28.5898 98.7637 26.8086C98.7637 25.0117 98.7793 23.6836 98.8105 22.8242C98.8574 21.9492 98.9199 21.1055 98.998 20.293C99.2793 16.9023 99.6621 14.918 100.146 14.3398C100.396 14.0273 100.803 13.793 101.365 13.6367C101.943 13.4648 102.709 13.293 103.662 13.1211C104.631 12.9336 105.646 12.7617 106.709 12.6055C107.787 12.4336 108.842 12.2773 109.873 12.1367C110.92 11.9961 111.811 11.8711 112.545 11.7617L113.365 17.0352L111.561 17.2227C108.217 17.5664 106.084 17.8555 105.162 18.0898C104.912 19.0586 104.74 20.418 104.646 22.168C104.553 23.918 104.506 25.1992 104.506 26.0117C104.506 28.0273 104.584 29.5352 104.74 30.5352L113.693 32.1992L112.311 37.2383C111.029 37.0352 109.826 36.8164 108.701 36.582L105.865 35.9961C103.303 35.4336 101.592 34.9883 100.732 34.6602ZM117.842 2.31641L123.514 1.23828L123.607 16.7305L123.467 21.4414L124.264 21.6055L132.186 11.3867L136.334 14.5977C135.771 15.4414 135.154 16.2305 134.482 16.9648L132.49 19.1445C131.803 19.8477 131.131 20.4961 130.475 21.0898L128.506 22.8008C128.709 22.9883 129.029 23.3086 129.467 23.7617C133.498 28.1055 136.201 31.5273 137.576 34.0273L132.959 37.3086L124.896 25.1445L123.279 25.918L122.881 35.5742L117.936 35.9492L117.842 2.31641Z" fill="#66C8F9"/>
</svg>
