<svg width="25" height="25" viewBox="0 0 25 25" fill="none" xmlns="http://www.w3.org/2000/svg">
<g id="vuesax/linear/note-2">
<g id="vuesax/linear/note-2_2">
<g id="note-2">
<path id="Vector" d="M22.4658 11.2549L21.4858 15.4349C20.6458 19.0449 18.9858 20.5049 15.8658 20.2049C15.3658 20.1649 14.8258 20.0749 14.2458 19.9349L12.5658 19.5349C8.39584 18.5449 7.10584 16.4849 8.08584 12.3049L9.06584 8.11495C9.26584 7.26495 9.50584 6.52495 9.80584 5.91495C10.9758 3.49495 12.9658 2.84495 16.3058 3.63495L17.9758 4.02495C22.1658 5.00495 23.4458 7.07495 22.4658 11.2549Z" stroke="white" stroke-width="1.5" stroke-linecap="round" stroke-linejoin="round"/>
<path id="Vector_2" d="M15.866 20.2049C15.246 20.6249 14.466 20.9749 13.516 21.2849L11.936 21.8049C7.96601 23.0849 5.87601 22.0149 4.58601 18.0449L3.30601 14.0949C2.02601 10.1249 3.086 8.02492 7.05601 6.74492L8.636 6.22492C9.046 6.09492 9.436 5.98492 9.80601 5.91492C9.506 6.52492 9.26601 7.26492 9.06601 8.11492L8.08601 12.3049C7.10601 16.4849 8.39601 18.5449 12.566 19.5349L14.246 19.9349C14.826 20.0749 15.366 20.1649 15.866 20.2049Z" stroke="white" stroke-width="1.5" stroke-linecap="round" stroke-linejoin="round"/>
<path id="Vector_3" d="M13.4453 9.34497L18.2953 10.575" stroke="white" stroke-width="1.5" stroke-linecap="round" stroke-linejoin="round"/>
<path id="Vector_4" d="M12.4658 13.215L15.3658 13.955" stroke="white" stroke-width="1.5" stroke-linecap="round" stroke-linejoin="round"/>
</g>
</g>
</g>
</svg>
