<svg width="24" height="20" viewBox="0 0 24 20" fill="none" xmlns="http://www.w3.org/2000/svg">
<path id="Vector" d="M23.4635 15.4841L23.4504 2.03279C23.4505 1.82428 23.4095 1.61779 23.3299 1.42514C23.2503 1.23248 23.1336 1.05743 22.9865 0.909966C22.8394 0.762504 22.6647 0.645523 22.4724 0.565714C22.2801 0.485906 22.074 0.444824 21.8659 0.444824H21.8493L12.1334 0.543575C10.7734 0.561545 9.47487 1.11431 8.51789 2.08266C7.56092 3.05102 7.02217 4.35738 7.0178 5.72005V12.4457C6.51828 12.033 5.92876 11.7439 5.29698 11.6019C4.66521 11.4599 4.00893 11.4689 3.38128 11.6283C2.75364 11.7876 2.17227 12.0928 1.68425 12.5191C1.19624 12.9454 0.815287 13.4809 0.572251 14.0822C0.329214 14.6834 0.230929 15.3335 0.285338 15.9799C0.339746 16.6263 0.545328 17.2508 0.885436 17.8028C1.22554 18.3548 1.69062 18.8187 2.24301 19.1572C2.79539 19.4956 3.41956 19.6989 4.06497 19.7507C4.18013 19.7598 4.29528 19.7648 4.40943 19.7648C5.44347 19.7631 6.43913 19.3723 7.19905 18.6697C7.95898 17.9672 8.42769 17.0042 8.51231 15.9718C8.52426 15.8194 8.52795 15.6665 8.52337 15.5138C8.52337 15.5037 8.5264 15.4942 8.5264 15.4836V5.72056C8.5296 4.75602 8.9109 3.83136 9.58814 3.1458C10.2654 2.46024 11.1843 2.06867 12.147 2.05546L21.8634 1.95823C21.8704 1.96428 21.9026 1.96477 21.9177 1.98039C21.9251 1.98737 21.9309 1.99582 21.9348 2.00519C21.9387 2.01456 21.9405 2.02465 21.9403 2.0348L21.9504 12.2926C21.2257 11.6982 20.3206 11.3688 19.3841 11.3584C18.4477 11.348 17.5355 11.6573 16.7979 12.2354C16.0602 12.8135 15.541 13.6259 15.3256 14.5391C15.1101 15.4522 15.2114 16.4115 15.6127 17.2593C16.014 18.1071 16.6914 18.7928 17.5334 19.2035C18.3754 19.6142 19.3319 19.7256 20.2455 19.5192C21.1591 19.3128 21.9754 18.801 22.56 18.0679C23.1446 17.3349 23.4627 16.4244 23.462 15.4861L23.4635 15.4841ZM6.09403 17.6338C5.77304 17.9065 5.3911 18.0975 4.98064 18.1907C4.57017 18.2839 4.14332 18.2764 3.73635 18.1689C3.32938 18.0615 2.95432 17.8572 2.64302 17.5734C2.33173 17.2897 2.0934 16.9348 1.94828 16.539C1.80317 16.1432 1.75555 15.7182 1.80948 15.3001C1.86341 14.8819 2.01729 14.4829 2.25805 14.1371C2.49881 13.7913 2.81933 13.5087 3.19239 13.3136C3.56545 13.1184 3.98002 13.0163 4.40089 13.016C4.47229 13.016 4.5442 13.019 4.61711 13.0251C5.1325 13.0676 5.62374 13.2622 6.02871 13.5844C6.43367 13.9066 6.73419 14.3419 6.89227 14.8351C7.05035 15.3284 7.05889 15.8576 6.91681 16.3557C6.77472 16.8539 6.4884 17.2986 6.09403 17.6338ZM19.3405 18.1058C18.8233 18.1058 18.3178 17.9522 17.8877 17.6643C17.4577 17.3765 17.1226 16.9673 16.9246 16.4886C16.7267 16.0099 16.675 15.4832 16.7758 14.975C16.8767 14.4668 17.1258 14 17.4915 13.6337C17.8572 13.2673 18.3231 13.0178 18.8304 12.9167C19.3376 12.8156 19.8634 12.8675 20.3412 13.0658C20.819 13.2641 21.2274 13.5998 21.5147 14.0307C21.802 14.4615 21.9554 14.968 21.9554 15.4861C21.9547 16.1807 21.679 16.8466 21.1888 17.3378C20.6985 17.8289 20.0338 18.1051 19.3405 18.1058Z" fill="#BAC6D3"/>
</svg>
