<svg width="19" height="19" viewBox="0 0 19 19" fill="none" xmlns="http://www.w3.org/2000/svg">
<g id="Password">
<path id="Stroke 1" fill-rule="evenodd" clip-rule="evenodd" d="M13.255 1H5.43413C2.7087 1 1 2.92972 1 5.66057V13.0294C1 15.7603 2.70058 17.69 5.43413 17.69H13.2541C15.9885 17.69 17.69 15.7603 17.69 13.0294V5.66057C17.69 2.92972 15.9885 1 13.255 1Z" stroke="#C2C0EA" stroke-width="1.5" stroke-linecap="round" stroke-linejoin="round"/>
<path id="Stroke 3" fill-rule="evenodd" clip-rule="evenodd" d="M8.1629 9.34659C8.1629 10.2695 7.41501 11.0174 6.49209 11.0174C5.56918 11.0174 4.82129 10.2695 4.82129 9.34659C4.82129 8.42367 5.56918 7.67578 6.49209 7.67578H6.4948C7.41591 7.67668 8.1629 8.42458 8.1629 9.34659Z" stroke="#C2C0EA" stroke-width="1.5" stroke-linecap="round" stroke-linejoin="round"/>
<path id="Stroke 5" d="M8.16504 9.34375H13.8649V11.0146" stroke="#C2C0EA" stroke-width="1.5" stroke-linecap="round" stroke-linejoin="round"/>
<path id="Stroke 7" d="M11.3134 11.0146V9.34375" stroke="#C2C0EA" stroke-width="1.5" stroke-linecap="round" stroke-linejoin="round"/>
</g>
</svg>
