<svg width="17" height="17" viewBox="0 0 17 17" fill="none" xmlns="http://www.w3.org/2000/svg">
<g id="vuesax/linear/radar-2">
<g id="radar-2">
<path id="Vector" d="M4.24935 2.83464C5.43227 1.94922 6.9056 1.41797 8.49935 1.41797C12.4093 1.41797 15.5827 4.5913 15.5827 8.5013C15.5827 12.4113 12.4093 15.5846 8.49935 15.5846C4.58935 15.5846 1.41602 12.4113 1.41602 8.5013C1.41602 7.21922 1.75601 6.01504 2.35809 4.97379L8.49935 8.5013" stroke="#C2C0EA" stroke-width="1.5" stroke-miterlimit="10" stroke-linecap="round" stroke-linejoin="round"/>
<path id="Vector_2" d="M4.83791 6.34666C4.46249 6.97708 4.25 7.71375 4.25 8.5C4.25 10.8446 6.15542 12.75 8.5 12.75C10.8446 12.75 12.75 10.8446 12.75 8.5C12.75 6.15542 10.8446 4.25 8.5 4.25C7.85542 4.25 7.23918 4.39167 6.69376 4.65376" stroke="#C2C0EA" stroke-width="1.5" stroke-miterlimit="10" stroke-linecap="round" stroke-linejoin="round"/>
</g>
</g>
</svg>
