<svg width="19" height="19" viewBox="0 0 19 19" fill="none" xmlns="http://www.w3.org/2000/svg">
<g id="Iconly/Light-Outline/Search">
<g id="Search">
<g id="Group 3">
<mask id="mask0_27_4787" style="mask-type:luminance" maskUnits="userSpaceOnUse" x="1" y="2" width="16" height="15">
<path id="Clip 2" fill-rule="evenodd" clip-rule="evenodd" d="M1.66089 2.44727H16.2685V16.7987H1.66089V2.44727Z" fill="white"/>
</mask>
<g mask="url(#mask0_27_4787)">
<path id="Fill 1" fill-rule="evenodd" clip-rule="evenodd" d="M8.96489 3.55253C5.55764 3.55253 2.78564 6.27516 2.78564 9.62263C2.78564 12.9701 5.55764 15.6935 8.96489 15.6935C12.3714 15.6935 15.1434 12.9701 15.1434 9.62263C15.1434 6.27516 12.3714 3.55253 8.96489 3.55253ZM8.96489 16.7987C4.93739 16.7987 1.66064 13.5795 1.66064 9.62263C1.66064 5.66579 4.93739 2.44727 8.96489 2.44727C12.9924 2.44727 16.2684 5.66579 16.2684 9.62263C16.2684 13.5795 12.9924 16.7987 8.96489 16.7987Z" fill="#7670E1"/>
</g>
</g>
<g id="Group 6">
<mask id="mask1_27_4787" style="mask-type:luminance" maskUnits="userSpaceOnUse" x="13" y="14" width="4" height="4">
<path id="Clip 5" fill-rule="evenodd" clip-rule="evenodd" d="M13.0908 14.0208H16.8589V17.7158H13.0908V14.0208Z" fill="white"/>
</mask>
<g mask="url(#mask1_27_4787)">
<path id="Fill 4" fill-rule="evenodd" clip-rule="evenodd" d="M16.2965 17.7158C16.1533 17.7158 16.0093 17.662 15.899 17.5545L13.256 14.9652C13.0363 14.7493 13.0355 14.3993 13.2553 14.1834C13.4743 13.966 13.8305 13.9675 14.051 14.1819L16.694 16.7719C16.9138 16.9878 16.9145 17.3371 16.6948 17.553C16.5853 17.662 16.4405 17.7158 16.2965 17.7158Z" fill="#7670E1"/>
</g>
</g>
</g>
</g>
</svg>
