<svg width="25" height="27" viewBox="0 0 25 27" fill="none" xmlns="http://www.w3.org/2000/svg">
<g id="ticket">
<path id="Vector" d="M19.5391 12.7396C19.5391 11.3596 20.6591 10.2396 22.0391 10.2396V9.23962C22.0391 5.23962 21.0391 4.23962 17.0391 4.23962H7.03906C3.03906 4.23962 2.03906 5.23962 2.03906 9.23962V9.73962C3.41906 9.73962 4.53906 10.8596 4.53906 12.2396C4.53906 13.6196 3.41906 14.7396 2.03906 14.7396V15.2396C2.03906 19.2396 3.03906 20.2396 7.03906 20.2396H17.0391C21.0391 20.2396 22.0391 19.2396 22.0391 15.2396C20.6591 15.2396 19.5391 14.1196 19.5391 12.7396Z" stroke="#7670E1" stroke-width="1.5" stroke-linecap="round" stroke-linejoin="round"/>
<path id="Vector_2" d="M10.0391 4.23962L10.0391 20.2396" stroke="#7670E1" stroke-width="1.5" stroke-linecap="round" stroke-linejoin="round" stroke-dasharray="5 5"/>
<g id="Group 39021">
<g id="Vector_3">
<path d="M23.539 25.2396C23.539 25.5048 23.4381 25.7592 23.2583 25.9467C23.0786 26.1343 22.8349 26.2396 22.5807 26.2396H1.49739C1.24323 26.2396 0.999474 26.1343 0.819751 25.9467C0.640029 25.7592 0.539062 25.5048 0.539062 25.2396C0.539062 24.9744 0.640029 24.7201 0.819751 24.5325C0.999474 24.345 1.24323 24.2396 1.49739 24.2396H22.5807C22.8349 24.2396 23.0786 24.345 23.2583 24.5325C23.4381 24.7201 23.539 24.9744 23.539 25.2396Z" fill="#66C8F9"/>
<path d="M23.539 25.2396C23.539 25.5048 23.4381 25.7592 23.2583 25.9467C23.0786 26.1343 22.8349 26.2396 22.5807 26.2396H1.49739C1.24323 26.2396 0.999474 26.1343 0.819751 25.9467C0.640029 25.7592 0.539062 25.5048 0.539062 25.2396C0.539062 24.9744 0.640029 24.7201 0.819751 24.5325C0.999474 24.345 1.24323 24.2396 1.49739 24.2396H22.5807C22.8349 24.2396 23.0786 24.345 23.2583 24.5325C23.4381 24.7201 23.539 24.9744 23.539 25.2396Z" stroke="white"/>
</g>
</g>
</g>
</svg>
