<svg width="20" height="19" viewBox="0 0 20 19" fill="none" xmlns="http://www.w3.org/2000/svg">
<g id="Ticket Star">
<path id="Stroke 1" fill-rule="evenodd" clip-rule="evenodd" d="M15.857 17.417C17.73 17.417 19.249 15.899 19.25 14.026V14.024V11.324C18.013 11.324 17.011 10.322 17.01 9.085C17.01 7.849 18.012 6.846 19.249 6.846H19.25V4.146C19.252 2.272 17.735 0.752 15.862 0.75H15.856H4.144C2.27 0.75 0.751 2.268 0.75 4.142V4.143V6.933C1.944 6.891 2.945 7.825 2.987 9.019C2.988 9.041 2.989 9.063 2.989 9.085C2.99 10.32 1.991 11.322 0.756 11.324H0.75V14.024C0.749 15.897 2.268 17.417 4.141 17.417H4.142H15.857Z" stroke="#7670E1" stroke-width="1.5" stroke-linecap="round" stroke-linejoin="round"/>
<path id="Stroke 3" fill-rule="evenodd" clip-rule="evenodd" d="M10.3716 6.06303L10.9876 7.31003C11.0476 7.43203 11.1636 7.51703 11.2986 7.53703L12.6756 7.73803C13.0166 7.78803 13.1516 8.20603 12.9056 8.44503L11.9096 9.41503C11.8116 9.51003 11.7676 9.64703 11.7896 9.78203L12.0246 11.152C12.0826 11.491 11.7276 11.749 11.4236 11.589L10.1926 10.942C10.0716 10.878 9.92758 10.878 9.80658 10.942L8.57658 11.589C8.27158 11.749 7.91658 11.491 7.97458 11.152L8.20958 9.78203C8.23258 9.64703 8.18758 9.51003 8.08958 9.41503L7.09458 8.44503C6.84858 8.20603 6.98358 7.78803 7.32358 7.73803L8.70058 7.53703C8.83558 7.51703 8.95258 7.43203 9.01258 7.31003L9.62758 6.06303C9.77958 5.75503 10.2196 5.75503 10.3716 6.06303Z" stroke="#7670E1" stroke-width="1.5" stroke-linecap="round" stroke-linejoin="round"/>
</g>
</svg>
