<svg width="28" height="27" viewBox="0 0 28 27" fill="none" xmlns="http://www.w3.org/2000/svg">
<path id="Vector" d="M19.8289 0C19.5195 0 19.2228 0.118526 19.0041 0.329505C18.7853 0.540483 18.6625 0.826631 18.6625 1.125C18.6625 4.44263 15.6496 5.625 12.8304 5.625H4.66561C3.42822 5.625 2.2415 6.09911 1.36653 6.94302C0.491554 7.78693 0 8.93153 0 10.125L0 12.375C0.00254762 13.0486 0.162669 13.7129 0.46843 14.3185C0.774192 14.9241 1.21771 15.4553 1.76593 15.8726L5.93233 24.8411C6.22864 25.4836 6.71169 26.0295 7.323 26.4126C7.93431 26.7958 8.64767 26.9998 9.37672 27C9.95678 26.9996 10.5275 26.8594 11.0371 26.5919C11.5466 26.3245 11.9786 25.9384 12.2939 25.4688C12.6093 24.9992 12.7978 24.461 12.8424 23.9032C12.887 23.3454 12.7863 22.7857 12.5493 22.275L9.98325 16.875H12.8304C15.6496 16.875 18.6625 18.0574 18.6625 21.375C18.6625 21.6734 18.7853 21.9595 19.0041 22.1705C19.2228 22.3815 19.5195 22.5 19.8289 22.5C20.1382 22.5 20.4349 22.3815 20.6536 22.1705C20.8724 21.9595 20.9953 21.6734 20.9953 21.375V1.125C20.9953 0.826631 20.8724 0.540483 20.6536 0.329505C20.4349 0.118526 20.1382 0 19.8289 0ZM10.4241 23.1964C10.5014 23.3647 10.5339 23.5489 10.5187 23.7323C10.5035 23.9158 10.441 24.0927 10.337 24.247C10.233 24.4013 10.0907 24.5281 9.92298 24.6159C9.75529 24.7038 9.56753 24.7498 9.37672 24.75C9.09841 24.7498 8.82614 24.6717 8.59299 24.5251C8.35984 24.3785 8.17585 24.1698 8.06335 23.9242L4.78809 16.875H7.41716L10.4241 23.1964ZM18.6625 16.425C16.996 15.1866 14.9327 14.5498 12.8304 14.625H4.66561C4.04692 14.625 3.45356 14.3879 3.01607 13.966C2.57858 13.544 2.33281 12.9717 2.33281 12.375V10.125C2.33281 9.52826 2.57858 8.95597 3.01607 8.53401C3.45356 8.11205 4.04692 7.875 4.66561 7.875H12.8304C14.932 7.95183 16.9952 7.31703 18.6625 6.08063V16.425ZM27.877 17.3835C27.8086 17.5158 27.7138 17.6337 27.5981 17.7307C27.4824 17.8276 27.348 17.9016 27.2027 17.9484C27.0573 17.9952 26.9038 18.0139 26.7509 18.0034C26.598 17.993 26.4488 17.9536 26.3117 17.8875L23.9789 16.7625C23.7021 16.6291 23.4915 16.3951 23.3935 16.112C23.2955 15.8289 23.3181 15.5198 23.4564 15.2527C23.5947 14.9857 23.8373 14.7826 24.1308 14.6881C24.4244 14.5936 24.7448 14.6154 25.0217 14.7487L27.3545 15.8737C27.6299 16.007 27.8395 16.24 27.9374 16.5219C28.0353 16.8037 28.0136 17.1114 27.877 17.3779V17.3835ZM23.4564 7.2585C23.3878 7.12629 23.347 6.98234 23.3362 6.8349C23.3253 6.68745 23.3447 6.53939 23.3933 6.39918C23.4418 6.25897 23.5185 6.12936 23.619 6.01776C23.7195 5.90615 23.8418 5.81474 23.9789 5.74875L26.3117 4.62375C26.5886 4.49038 26.9091 4.46855 27.2026 4.56307C27.4962 4.65759 27.7388 4.86071 27.877 5.12775C28.0153 5.39479 28.038 5.70387 27.94 5.98701C27.842 6.27014 27.6314 6.50413 27.3545 6.6375L25.0217 7.7625C24.8846 7.8286 24.7354 7.868 24.5825 7.87844C24.4296 7.88889 24.2761 7.87017 24.1307 7.82336C23.9854 7.77656 23.851 7.70258 23.7353 7.60566C23.6196 7.50873 23.5248 7.39077 23.4564 7.2585ZM23.3281 11.25C23.3281 10.9516 23.451 10.6655 23.6697 10.4545C23.8884 10.2435 24.1851 10.125 24.4945 10.125H26.8273C27.1366 10.125 27.4333 10.2435 27.6521 10.4545C27.8708 10.6655 27.9937 10.9516 27.9937 11.25C27.9937 11.5484 27.8708 11.8345 27.6521 12.0455C27.4333 12.2565 27.1366 12.375 26.8273 12.375H24.4945C24.1851 12.375 23.8884 12.2565 23.6697 12.0455C23.451 11.8345 23.3281 11.5484 23.3281 11.25Z" fill="#9691F6"/>
</svg>
