<svg width="25" height="25" viewBox="0 0 25 25" fill="none" xmlns="http://www.w3.org/2000/svg">
<g id="Iconly/Light/Category">
<g id="Category">
<path id="Stroke 1" fill-rule="evenodd" clip-rule="evenodd" d="M3.34863 6.60486C3.34863 3.97965 3.37674 3.10486 6.84863 3.10486C10.3205 3.10486 10.3486 3.97965 10.3486 6.60486C10.3486 9.23007 10.3597 10.1049 6.84863 10.1049C3.33756 10.1049 3.34863 9.23007 3.34863 6.60486Z" stroke="white" stroke-width="1.5" stroke-linecap="round" stroke-linejoin="round"/>
<path id="Stroke 3" fill-rule="evenodd" clip-rule="evenodd" d="M14.3486 6.60486C14.3486 3.97965 14.3767 3.10486 17.8486 3.10486C21.3205 3.10486 21.3486 3.97965 21.3486 6.60486C21.3486 9.23007 21.3597 10.1049 17.8486 10.1049C14.3376 10.1049 14.3486 9.23007 14.3486 6.60486Z" stroke="white" stroke-width="1.5" stroke-linecap="round" stroke-linejoin="round"/>
<path id="Stroke 5" fill-rule="evenodd" clip-rule="evenodd" d="M3.34863 17.6049C3.34863 14.9796 3.37674 14.1049 6.84863 14.1049C10.3205 14.1049 10.3486 14.9796 10.3486 17.6049C10.3486 20.2301 10.3597 21.1049 6.84863 21.1049C3.33756 21.1049 3.34863 20.2301 3.34863 17.6049Z" stroke="white" stroke-width="1.5" stroke-linecap="round" stroke-linejoin="round"/>
<path id="Stroke 7" fill-rule="evenodd" clip-rule="evenodd" d="M14.3486 17.6049C14.3486 14.9796 14.3767 14.1049 17.8486 14.1049C21.3205 14.1049 21.3486 14.9796 21.3486 17.6049C21.3486 20.2301 21.3597 21.1049 17.8486 21.1049C14.3376 21.1049 14.3486 20.2301 14.3486 17.6049Z" stroke="white" stroke-width="1.5" stroke-linecap="round" stroke-linejoin="round"/>
</g>
</g>
</svg>
