<svg width="24" height="24" viewBox="0 0 24 24" fill="none" xmlns="http://www.w3.org/2000/svg">
<g id="icons / bx-alarm-add">
<path id="Vector" d="M12.002 1.11328C5.96993 1.11328 0.875 6.20821 0.875 12.2403C0.875 18.2724 5.96993 23.3673 12.002 23.3673C18.0341 23.3673 23.129 18.2724 23.129 12.2403C23.129 6.20821 18.0341 1.11328 12.002 1.11328ZM12.002 20.8946C7.31135 20.8946 3.34767 16.9309 3.34767 12.2403C3.34767 7.54963 7.31135 3.58595 12.002 3.58595C16.6926 3.58595 20.6563 7.54963 20.6563 12.2403C20.6563 16.9309 16.6926 20.8946 12.002 20.8946Z" fill="white"/>
<path id="Vector_2" d="M13.2383 6.05859H10.7656V11.0039H5.82031V13.4766H10.7656V18.4219H13.2383V13.4766H18.1836V11.0039H13.2383V6.05859Z" fill="white"/>
</g>
</svg>
