<svg width="34" height="30" viewBox="0 0 34 30" fill="none" xmlns="http://www.w3.org/2000/svg">
<g id="Camera">
<path id="Path" d="M26.0663 5.39401L25.8997 5.02775C25.4497 4.0788 24.933 2.98002 24.6163 2.34739C23.8497 0.849057 22.533 0.0166482 20.9163 0H13.0663C11.4497 0.0166482 10.1497 0.849057 9.38301 2.34739C9.04967 3.01332 8.48301 4.21199 8.01634 5.19423L7.91634 5.39401C7.86634 5.52719 7.73301 5.59378 7.59967 5.59378C3.58301 5.59378 0.333008 8.85683 0.333008 12.8524V22.7414C0.333008 26.737 3.58301 30 7.59967 30H26.3997C30.3997 30 33.6663 26.737 33.6663 22.7414V12.8524C33.6663 8.85683 30.3997 5.59378 26.3997 5.59378C26.2497 5.59378 26.133 5.51054 26.0663 5.39401Z" fill="#D9D9D9"/>
<path id="Combined Shape" fill-rule="evenodd" clip-rule="evenodd" d="M24.8496 11.7884C24.8496 12.6208 25.5163 13.2868 26.3496 13.2868C27.1829 13.2868 27.8663 12.6208 27.8663 11.7884C27.8663 10.956 27.1829 10.2734 26.3496 10.2734C25.5163 10.2734 24.8496 10.956 24.8496 11.7884ZM21.6152 21.8402C20.4319 23.0222 18.7985 23.7547 16.9985 23.7547C15.2485 23.7547 13.6152 23.0722 12.3652 21.8402C11.1319 20.5916 10.4485 18.9601 10.4485 17.212C10.4319 15.4806 11.1152 13.8491 12.3485 12.6005C13.5985 11.3518 15.2485 10.6693 16.9985 10.6693C18.7485 10.6693 20.3985 11.3518 21.6319 12.5838C22.8652 13.8324 23.5485 15.4806 23.5485 17.212C23.5319 19.0267 22.7985 20.6582 21.6152 21.8402ZM16.9987 13.1693C15.9154 13.1693 14.8987 13.5855 14.1154 14.3679C13.3487 15.1338 12.9321 16.1493 12.9487 17.1981V17.2148C12.9487 18.2969 13.3654 19.3124 14.1321 20.0783C14.8987 20.8441 15.9154 21.2603 16.9987 21.2603C19.2321 21.2603 21.0321 19.4456 21.0487 17.2148C21.0487 16.1326 20.6321 15.1171 19.8654 14.3513C19.0987 13.5855 18.0821 13.1693 16.9987 13.1693Z" fill="#495363"/>
</g>
</svg>
