<svg width="25" height="24" viewBox="0 0 25 24" fill="none" xmlns="http://www.w3.org/2000/svg">
<g id="directbox-default">
<g id="Vector">
<path d="M19.2852 14V6C19.2852 3.79 19.2852 2 15.2852 2H9.28516C5.28516 2 5.28516 3.79 5.28516 6V14" fill="#999CA1"/>
<path d="M19.2852 14V6C19.2852 3.79 19.2852 2 15.2852 2H9.28516C5.28516 2 5.28516 3.79 5.28516 6V14" stroke="white" stroke-width="1.5" stroke-miterlimit="10" stroke-linecap="round" stroke-linejoin="round"/>
</g>
<path id="Vector_2" d="M7.28516 12C3.28516 12 3.28516 13.79 3.28516 16V17C3.28516 19.76 3.28516 22 8.28516 22H16.2852C20.2852 22 21.2852 19.76 21.2852 17V16C21.2852 13.79 21.2852 12 17.2852 12C16.2852 12 16.0052 12.21 15.4852 12.6L14.4652 13.68C13.2852 14.94 11.2852 14.94 10.0952 13.68L9.08516 12.6C8.56516 12.21 8.28516 12 7.28516 12Z" fill="#999CA1" stroke="white" stroke-width="1.5" stroke-miterlimit="10" stroke-linecap="round" stroke-linejoin="round"/>
</g>
</svg>
