<svg width="25" height="24" viewBox="0 0 25 24" fill="none" xmlns="http://www.w3.org/2000/svg">
<g id="directbox-default">
<g id="Vector">
<path d="M19.3057 14V6C19.3057 3.79 19.3057 2 15.3057 2H9.30566C5.30566 2 5.30566 3.79 5.30566 6V14" fill="#7670E1"/>
<path d="M19.3057 14V6C19.3057 3.79 19.3057 2 15.3057 2H9.30566C5.30566 2 5.30566 3.79 5.30566 6V14" stroke="white" stroke-width="1.5" stroke-miterlimit="10" stroke-linecap="round" stroke-linejoin="round"/>
</g>
<path id="Vector_2" d="M7.30566 12C3.30566 12 3.30566 13.79 3.30566 16V17C3.30566 19.76 3.30566 22 8.30566 22H16.3057C20.3057 22 21.3057 19.76 21.3057 17V16C21.3057 13.79 21.3057 12 17.3057 12C16.3057 12 16.0257 12.21 15.5057 12.6L14.4857 13.68C13.3057 14.94 11.3057 14.94 10.1157 13.68L9.10566 12.6C8.58566 12.21 8.30566 12 7.30566 12Z" fill="#7670E1" stroke="white" stroke-width="1.5" stroke-miterlimit="10" stroke-linecap="round" stroke-linejoin="round"/>
</g>
</svg>
