<svg width="25" height="24" viewBox="0 0 25 24" fill="none" xmlns="http://www.w3.org/2000/svg">
<g id="directbox-default">
<g id="Vector">
<path d="M19.6284 14V6C19.6284 3.79 19.6284 2 15.6284 2H9.62842C5.62842 2 5.62842 3.79 5.62842 6V14" fill="#FF0000"/>
<path d="M19.6284 14V6C19.6284 3.79 19.6284 2 15.6284 2H9.62842C5.62842 2 5.62842 3.79 5.62842 6V14" stroke="white" stroke-width="1.5" stroke-miterlimit="10" stroke-linecap="round" stroke-linejoin="round"/>
</g>
<path id="Vector_2" d="M7.62842 12C3.62842 12 3.62842 13.79 3.62842 16V17C3.62842 19.76 3.62842 22 8.62842 22H16.6284C20.6284 22 21.6284 19.76 21.6284 17V16C21.6284 13.79 21.6284 12 17.6284 12C16.6284 12 16.3484 12.21 15.8284 12.6L14.8084 13.68C13.6284 14.94 11.6284 14.94 10.4384 13.68L9.42842 12.6C8.90842 12.21 8.62842 12 7.62842 12Z" fill="#FF0000" stroke="white" stroke-width="1.5" stroke-miterlimit="10" stroke-linecap="round" stroke-linejoin="round"/>
</g>
</svg>
