<svg width="25" height="24" viewBox="0 0 25 24" fill="none" xmlns="http://www.w3.org/2000/svg">
<g id="directbox-default">
<path id="Vector" d="M7.09229 12C3.09229 12 3.09229 13.79 3.09229 16V17C3.09229 19.76 3.09229 22 8.09229 22H16.0923C20.0923 22 21.0923 19.76 21.0923 17V16C21.0923 13.79 21.0923 12 17.0923 12C16.0923 12 15.8123 12.21 15.2923 12.6L14.2723 13.68C13.0923 14.94 11.0923 14.94 9.90229 13.68L8.89229 12.6C8.37229 12.21 8.09229 12 7.09229 12Z" stroke="#7670E1" stroke-width="1.5" stroke-miterlimit="10" stroke-linecap="round" stroke-linejoin="round"/>
<path id="Vector_2" d="M19.0923 12V6C19.0923 3.79 19.0923 2 15.0923 2H9.09229C5.09229 2 5.09229 3.79 5.09229 6V12" stroke="#7670E1" stroke-width="1.5" stroke-miterlimit="10" stroke-linecap="round" stroke-linejoin="round"/>
</g>
</svg>
