<svg width="23" height="22" viewBox="0 0 23 22" fill="none" xmlns="http://www.w3.org/2000/svg">
<g id="Group">
<path id="Vector" d="M22.0957 6.35372C21.8086 4.27433 21.0628 2.81219 19.8805 2.00659C18.4174 1.01079 16.7308 0.817842 15.2421 0.648218L14.939 0.613001C11.8489 0.235107 8.71804 0.357545 5.66684 0.97558C4.93884 1.10557 4.22822 1.31896 3.54905 1.61155C2.72695 1.96472 2.02327 2.54607 1.52133 3.28676C0.762822 4.44441 0.609204 5.93078 0.52462 7.23336C0.436379 8.60498 0.35225 10.2276 0.402086 11.8969C0.421746 12.5566 0.447799 13.2603 0.499463 13.9763C0.603707 15.3726 0.824995 17.1649 1.61688 18.6448C2.70366 20.6776 4.51102 21.148 5.77749 21.3254C7.5784 21.6144 9.39735 21.7767 11.221 21.811H11.2535C13.1351 21.7868 15.0103 21.5867 16.8547 21.2134C18.2917 20.9428 19.763 20.534 20.7926 19.3846C21.9023 18.1451 22.0998 16.3355 22.2063 14.588C22.4393 11.8462 22.4022 9.08824 22.0957 6.35372ZM20.8361 14.5057C20.7446 16.0145 20.5855 17.5594 19.7699 18.4706C18.9752 19.3576 17.7165 19.6594 16.5991 19.8674C14.8378 20.225 13.0469 20.417 11.2498 20.4412C9.47961 20.4074 7.71396 20.2496 5.96585 19.9689C4.38437 19.7476 3.44526 19.1587 2.82528 18.0002C2.15547 16.746 1.96116 15.1376 1.86514 13.8752C1.81348 13.1894 1.79016 12.5013 1.7705 11.858C1.72478 10.2441 1.80479 8.65759 1.89121 7.32163C1.96436 6.1937 2.0901 4.91715 2.66847 4.03885C3.02756 3.51407 3.53096 3.10454 4.11782 2.85972C4.7001 2.61198 5.30876 2.4316 5.932 2.32206C7.74195 1.95829 9.58335 1.77358 11.4295 1.77064C12.5479 1.77098 13.6653 1.83955 14.7753 1.97595L15.0858 2.01161C16.4816 2.17117 17.925 2.33577 19.1092 3.14137C19.9573 3.71883 20.5051 4.86274 20.7369 6.54161C21.0298 9.18671 21.063 11.8541 20.8361 14.5057Z" fill="white"/>
<path id="Vector_2" d="M8.05996 9.55144H8.06867C8.40724 9.54842 8.73082 9.4114 8.9686 9.17036C9.20638 8.92932 9.33899 8.6039 9.3374 8.26532C9.33439 7.92833 9.19865 7.60612 8.95958 7.36859C8.72052 7.13107 8.39743 6.99741 8.06043 6.99658H8.05128C7.71656 7.00395 7.39809 7.14237 7.16438 7.3821C6.93067 7.62183 6.80038 7.94369 6.80152 8.27849C6.80266 8.61329 6.93515 8.93429 7.17049 9.17242C7.40583 9.41056 7.7252 9.54682 8.05996 9.55191V9.55144ZM7.96578 8.274C7.96578 8.2491 7.97564 8.22523 7.99321 8.20758C8.01077 8.18993 8.03461 8.17993 8.05951 8.17981C8.08394 8.17992 8.10738 8.18954 8.12487 8.2066C8.14236 8.22367 8.15254 8.24684 8.15325 8.27126C8.15337 8.29581 8.14386 8.31942 8.12677 8.33703C8.10967 8.35465 8.08634 8.36484 8.0618 8.36544C8.03801 8.36316 8.0157 8.35289 7.99851 8.33628C7.98132 8.31967 7.97027 8.2977 7.96717 8.274H8.15506H7.96578Z" fill="white"/>
<path id="Vector_3" d="M14.6482 9.50667H14.6569C14.9957 9.50564 15.3203 9.37004 15.5591 9.12975C15.7979 8.88945 15.9315 8.56415 15.9305 8.22535C15.9295 7.88655 15.7939 7.56202 15.5536 7.32319C15.3133 7.08435 14.988 6.95076 14.6492 6.95179H14.64C14.3012 6.95288 13.9767 7.08851 13.7379 7.32885C13.4991 7.56919 13.3656 7.89453 13.3667 8.23333C13.3678 8.57213 13.5034 8.89662 13.7438 9.13541C13.9841 9.37421 14.3095 9.50776 14.6482 9.50667ZM14.6482 8.13505C14.6669 8.13496 14.6851 8.14037 14.7007 8.15065C14.7162 8.16092 14.7283 8.17558 14.7355 8.19276C14.7428 8.20993 14.7447 8.22886 14.7412 8.24715C14.7376 8.26543 14.7287 8.28227 14.7156 8.29551C14.7025 8.30874 14.6858 8.31779 14.6675 8.32151C14.6493 8.32524 14.6303 8.32345 14.6131 8.31641C14.5958 8.30936 14.5811 8.29735 14.5706 8.28192C14.5602 8.26648 14.5546 8.2483 14.5545 8.22968C14.5569 8.20554 14.5675 8.18295 14.5846 8.16572C14.6017 8.14848 14.6241 8.13766 14.6482 8.13505Z" fill="white"/>
<path id="Vector_4" d="M16.3418 11.6469H16.3372L6.27866 11.7154C6.1886 11.716 6.09955 11.7344 6.01657 11.7694C5.93359 11.8044 5.85832 11.8554 5.79506 11.9195C5.7318 11.9837 5.68179 12.0596 5.64788 12.143C5.61397 12.2265 5.59683 12.3158 5.59743 12.4058C5.61663 15.1655 8.17152 17.3958 11.3025 17.3958H11.3482C14.4997 17.3748 17.0482 15.1015 17.0295 12.3281C17.0283 12.147 16.9555 11.9737 16.827 11.8461C16.6985 11.7185 16.5248 11.6468 16.3437 11.6469H16.3418ZM11.3377 16.0242H11.302C9.20114 16.0242 7.4418 14.7595 7.04998 13.0816L15.5838 13.024C15.213 14.7166 13.4541 16.01 11.3377 16.0242Z" fill="white"/>
</g>
</svg>
