<svg width="21" height="20" viewBox="0 0 21 20" fill="none" xmlns="http://www.w3.org/2000/svg">
<g id="Group">
<path id="Vector" d="M20.2766 5.56225C20.0084 3.62002 19.3119 2.25431 18.2076 1.50185C16.841 0.571732 15.2656 0.391513 13.8751 0.233077L13.592 0.200183C10.7057 -0.152785 7.78135 -0.0384235 4.9314 0.538847C4.25141 0.66026 3.58767 0.859579 2.95329 1.13287C2.18542 1.46275 1.52816 2.00575 1.05932 2.69759C0.35084 3.77888 0.207354 5.16721 0.12835 6.38388C0.0459288 7.66503 -0.032651 9.18064 0.0138976 10.7398C0.0322608 11.356 0.0565951 12.0133 0.104852 12.6821C0.20222 13.9863 0.408913 15.6603 1.14857 17.0427C2.16367 18.9413 3.85182 19.3808 5.03475 19.5465C6.71688 19.8164 8.41585 19.968 10.1192 20H10.1495C11.9071 19.9774 13.6586 19.7905 15.3813 19.4418C16.7236 19.189 18.0978 18.8072 19.0595 17.7336C20.096 16.5759 20.2805 14.8856 20.38 13.2534C20.5975 10.6925 20.5629 8.11641 20.2766 5.56225ZM19.1001 13.1766C19.0147 14.5858 18.8661 16.0288 18.1042 16.8799C17.362 17.7084 16.1863 17.9903 15.1426 18.1846C13.4974 18.5186 11.8247 18.698 10.1461 18.7205C8.49269 18.689 6.8435 18.5416 5.21069 18.2794C3.73352 18.0727 2.85635 17.5227 2.27726 16.4405C1.65163 15.2691 1.47014 13.7668 1.38045 12.5877C1.3322 11.9471 1.31042 11.3044 1.29205 10.7035C1.24935 9.19603 1.32409 7.71417 1.4048 6.46632C1.47313 5.41279 1.59057 4.22044 2.13079 3.40007C2.4662 2.90991 2.9364 2.52738 3.48455 2.29871C4.02842 2.06731 4.59694 1.89883 5.17907 1.79652C6.86964 1.45674 8.58958 1.28421 10.314 1.28147C11.3586 1.28178 12.4023 1.34583 13.4391 1.47323L13.7291 1.50654C15.0329 1.65558 16.3811 1.80932 17.4871 2.56179C18.2793 3.10116 18.7909 4.16962 19.0074 5.73775C19.281 8.20839 19.312 10.6999 19.1001 13.1766Z" fill="#2DB9FF"/>
<path id="Vector_2" d="M7.16763 8.55041H7.17576C7.492 8.54759 7.79424 8.4196 8.01634 8.19446C8.23844 7.96932 8.36229 7.66536 8.36081 7.34911C8.358 7.03435 8.23121 6.73339 8.00792 6.51154C7.78462 6.28968 7.48284 6.16484 7.16807 6.16406H7.15952C6.84688 6.17094 6.54942 6.30024 6.33112 6.52415C6.11282 6.74807 5.99113 7.0487 5.99219 7.36142C5.99326 7.67413 6.11701 7.97396 6.33683 8.19639C6.55664 8.41882 6.85495 8.54609 7.16763 8.55085V8.55041ZM7.07966 7.35722C7.07966 7.33396 7.08887 7.31167 7.10528 7.29519C7.12169 7.2787 7.14395 7.26936 7.16721 7.26925C7.19003 7.26935 7.21192 7.27834 7.22826 7.29427C7.24459 7.31021 7.2541 7.33186 7.25476 7.35467C7.25488 7.37759 7.246 7.39965 7.23003 7.4161C7.21406 7.43255 7.19227 7.44208 7.16935 7.44264C7.14712 7.4405 7.12629 7.43091 7.11023 7.4154C7.09418 7.39988 7.08386 7.37936 7.08096 7.35722H7.25646H7.07966Z" fill="#2DB9FF"/>
<path id="Vector_3" d="M13.322 8.51137H13.3301C13.6466 8.51041 13.9497 8.38376 14.1728 8.15931C14.3959 7.93487 14.5207 7.63102 14.5197 7.31457C14.5187 6.99812 14.3921 6.69499 14.1677 6.47191C13.9432 6.24882 13.6393 6.12404 13.3229 6.12501H13.3143C12.9979 6.12602 12.6948 6.25271 12.4718 6.4772C12.2487 6.70168 12.124 7.00557 12.125 7.32202C12.126 7.63847 12.2527 7.94156 12.4772 8.1646C12.7017 8.38765 13.0056 8.51239 13.322 8.51137ZM13.322 7.23022C13.3394 7.23014 13.3565 7.23519 13.371 7.24479C13.3855 7.25439 13.3968 7.26808 13.4036 7.28412C13.4103 7.30016 13.4121 7.31784 13.4088 7.33492C13.4055 7.352 13.3972 7.36773 13.3849 7.38009C13.3727 7.39246 13.3571 7.40091 13.34 7.40439C13.323 7.40786 13.3053 7.4062 13.2892 7.39962C13.2731 7.39304 13.2593 7.38182 13.2495 7.3674C13.2398 7.35298 13.2346 7.33601 13.2345 7.31861C13.2367 7.29606 13.2466 7.27496 13.2626 7.25887C13.2785 7.24277 13.2995 7.23266 13.322 7.23022Z" fill="#2DB9FF"/>
<path id="Vector_4" d="M14.901 10.5078H14.8967L5.50155 10.5719C5.41743 10.5724 5.33425 10.5896 5.25675 10.6223C5.17924 10.655 5.10893 10.7026 5.04984 10.7625C4.99076 10.8224 4.94405 10.8933 4.91237 10.9713C4.8807 11.0492 4.86469 11.1326 4.86525 11.2167C4.88318 13.7944 7.26956 15.8776 10.194 15.8776H10.2367C13.1804 15.8579 15.5608 13.7346 15.5433 11.1441C15.5421 10.975 15.4741 10.8131 15.3541 10.6939C15.2341 10.5747 15.0718 10.5078 14.9027 10.5078H14.901ZM10.2269 14.5964H10.1936C8.23126 14.5964 6.58797 13.4152 6.22199 11.8479L14.1929 11.7941C13.8466 13.375 12.2037 14.5832 10.2269 14.5964Z" fill="#2DB9FF"/>
</g>
</svg>
