<svg width="95" height="91" viewBox="0 0 95 91" fill="none" xmlns="http://www.w3.org/2000/svg">
<g id="Mask group" opacity="0.35">
<mask id="mask0_474_1733" style="mask-type:alpha" maskUnits="userSpaceOnUse" x="0" y="0" width="97" height="91">
<g id="Vector">
<path fill-rule="evenodd" clip-rule="evenodd" d="M83.4856 74.8256C91.6106 72.6485 96.4356 64.2979 94.2628 56.1716L91.1221 44.4504C85.756 45.8882 80.2447 42.7062 78.8025 37.3413C77.3658 31.9796 80.5466 26.4639 85.9127 25.026L85.9171 25.0249L82.7787 13.3123C80.6091 5.18056 72.2616 0.350114 64.1342 2.51854L13.3016 16.1391C5.17222 18.3174 0.347275 26.6681 2.5212 34.7986L5.76535 46.9059C10.8961 45.3359 16.3241 48.2241 17.8941 53.3548C17.924 53.4491 17.9539 53.5433 17.9795 53.6388C19.4194 58.995 16.2504 64.5029 10.8953 65.9471L10.8693 65.9541L14.0077 77.6666C16.1804 85.7929 24.5366 90.621 32.6617 88.4439L83.4856 74.8256Z" stroke="white" stroke-width="3" stroke-linecap="round" stroke-linejoin="round"/>
<path fill-rule="evenodd" clip-rule="evenodd" d="M46.4934 31.9486L50.6151 36.642C51.0171 37.1015 51.6191 37.3354 52.228 37.2652L58.4351 36.5366C59.9724 36.3571 61.0439 38.0135 60.2546 39.3362L57.0615 44.7018C56.7468 45.2278 56.7151 45.8733 56.9675 46.4333L59.5793 52.1032C60.225 53.5064 58.9849 55.0382 57.4802 54.6975L51.388 53.3217C50.7888 53.1847 50.1641 53.3521 49.7136 53.7704L45.1299 58.0067C43.9928 59.0553 42.1529 58.3488 42.0105 56.8108L41.4375 50.5946C41.3803 49.9822 41.0259 49.4402 40.4903 49.142L35.0465 46.0907C33.7016 45.3399 33.8013 43.3697 35.2181 42.7576L40.9579 40.2851C41.5203 40.0414 41.929 39.5367 42.0475 38.9377L43.2659 32.8134C43.5673 31.3006 45.476 30.7891 46.4934 31.9486Z" stroke="white" stroke-width="3" stroke-linecap="round" stroke-linejoin="round"/>
</g>
</mask>
<g mask="url(#mask0_474_1733)">
<rect id="Rectangle 12" x="-43.5283" y="-2.53516" width="115.613" height="189.935" rx="10" fill="white"/>
</g>
</g>
</svg>
