<svg width="172" height="164" viewBox="0 0 172 164" fill="none" xmlns="http://www.w3.org/2000/svg">
<g id="Mask group" opacity="0.27">
<mask id="mask0_474_1728" style="mask-type:alpha" maskUnits="userSpaceOnUse" x="-1" y="0" width="176" height="164">
<g id="Vector">
<path fill-rule="evenodd" clip-rule="evenodd" d="M151.011 135.281C165.77 131.327 174.534 116.158 170.587 101.398L164.882 80.1073C155.135 82.719 145.124 76.9392 142.505 67.1943C139.895 57.4551 145.673 47.4364 155.42 44.8247L155.428 44.8226L149.727 23.5477C145.786 8.7772 130.624 0.00313228 115.861 3.94188L23.5284 28.6824C8.76205 32.639 -0.00202602 47.8073 3.94672 62.5757L9.83942 84.5676C19.1589 81.7157 29.0184 86.9618 31.8702 96.2813C31.9246 96.4526 31.9789 96.6238 32.0253 96.7972C34.6407 106.526 28.8846 116.531 19.1575 119.154L19.1102 119.167L24.8108 140.442C28.7574 155.202 43.9357 163.972 58.6942 160.017L151.011 135.281Z" stroke="#F8FBFF" stroke-width="6" stroke-linecap="round" stroke-linejoin="round"/>
<path fill-rule="evenodd" clip-rule="evenodd" d="M83.8182 57.3988L91.3048 65.9241C92.0352 66.7587 93.1287 67.1836 94.2346 67.0561L105.509 65.7326C108.302 65.4066 110.248 68.4153 108.814 70.8179L103.014 80.5639C102.443 81.5194 102.385 82.6918 102.843 83.7091L107.588 94.0079C108.76 96.5567 106.508 99.3391 103.775 98.7202L92.7089 96.2212C91.6204 95.9724 90.4857 96.2764 89.6674 97.0362L81.3416 104.731C79.2761 106.636 75.9341 105.352 75.6754 102.559L74.6346 91.2676C74.5308 90.1553 73.887 89.1708 72.9142 88.6292L63.026 83.0868C60.583 81.7229 60.7643 78.1443 63.3377 77.0324L73.7635 72.5413C74.785 72.0987 75.5275 71.1819 75.7427 70.0939L77.9558 58.9697C78.5032 56.2218 81.9702 55.2928 83.8182 57.3988Z" stroke="#F8FBFF" stroke-width="6" stroke-linecap="round" stroke-linejoin="round"/>
</g>
</mask>
<g mask="url(#mask0_474_1728)">
<rect id="Rectangle 12" x="-79.6982" y="-5.23438" width="210" height="345" rx="20" fill="#D6DAE1"/>
</g>
</g>
</svg>
