<?xml version="1.0" encoding="UTF-8"?>
<svg id="Layer_2" data-name="Layer 2" xmlns="http://www.w3.org/2000/svg" viewBox="0 0 190 48.93">
  <defs>
    <style>
      .cls-1 {
        fill: #66c8f9;
      }

      .cls-2 {
        fill: #7670e1;
      }
    </style>
  </defs>
  <g id="Layer_1-2" data-name="Layer 1">
    <g>
      <path class="cls-2" d="M104.23,12.78c0-.31-.04-.63-.11-.93-.09-.42-.38-.76-.77-.83-.68-.12-1.38-.13-2.08-.14-.24,0-.5,.1-.72,.23-.58,.33-.68,.91-.69,1.51,0,6.18-.02,12.37,0,18.55,0,2.2-1.92,3.97-4,3.97-6.28,.02-12.56,0-18.83,0-1.12,0-2.04-.47-2.77-1.27-.71-.78-1.05-1.72-1.05-2.81,.02-6.09,0-12.18,0-18.27,0-.31-.05-.63-.11-.93-.08-.42-.38-.72-.76-.85-.71-.24-1.45-.19-2.18-.11-.21,.02-.44,.09-.62,.19-.58,.33-.69,.91-.7,1.5,0,6.23,0,12.46,0,18.69,0,2.01-1.44,3.38-3.22,3.77-.62,.14-1.3,.07-1.95,.07-1.25,0-2.22-.58-3.01-1.52-.18-.22-.18-.38-.02-.64,1.5-2.41,2.17-5,1.68-7.83-.49-2.87-1.94-5.19-4.18-7.01-2.68-2.18-5.81-3.08-9.21-3.15-2.76-.05-5.53-.01-8.3-.02-1.07,0-2.01-.41-2.83-1.05-1.4-1.11-2.02-2.59-1.96-4.38,.06-1.77,.9-3.08,2.3-4.06,.86-.61,1.85-.84,2.9-.84,5.96,.01,11.93,0,17.89,0,.12,0,.23,0,.35,0,.62-.05,1.21-.26,1.34-.91,.14-.7,.12-1.43,.12-2.15,0-.22-.1-.46-.22-.65-.32-.55-.87-.66-1.45-.66-5.93,0-11.86,0-17.78,0-.43,0-.86,.01-1.29,.06-2.05,.23-3.93,.91-5.45,2.34-2.27,2.14-3.26,4.8-3.05,7.9,.19,2.87,1.54,5.12,3.78,6.89,1.66,1.31,3.59,1.85,5.66,1.9,2.11,.05,4.22,0,6.34,.01,1,0,2.01-.01,3.01,.08,2.34,.21,4.4,1.1,6.04,2.82,1.77,1.85,2.26,4.04,1.48,6.49-.49,1.55-1.43,2.81-2.61,3.91-1.72,1.61-3.75,2.47-6.13,2.47-2.76,0-5.53,.04-8.29,.05-2.06,0-5.51,0-7.87,0-1.64,0-3.21-.66-4.36-1.81-2.36-2.36-6.47-6.48-8.86-8.87-.07-.07-.13-.15-.2-.23,2.09-2.13,4.18-4.24,6.26-6.37,2.1-2.13,2.09-5.56-.02-7.69l-5.58-5.63c-2.14-2.15-5.62-2.15-7.76,0l-5.51,5.56c-2.12,2.14-2.11,5.59,.02,7.72l6.45,6.44c-.09,.1-.18,.19-.27,.28-4.36,4.43-8.72,8.86-13.08,13.29l1.17,1.17c1.04,1.04,2.74,1.04,3.77-.01,1.25-1.27,2.5-2.54,3.76-3.81,.21,.25,.41,.5,.6,.73,.37-.39,.7-.73,1.08-1.12-.19-.16-.44-.37-.71-.59,2.29-2.32,4.51-4.58,6.7-6.81l4.2,4.18c1.04,1.04,1.04,2.72,0,3.76-1.61,1.61-3.24,3.24-4.88,4.88-.15-.19-.32-.41-.49-.62-.39,.41-.72,.75-1.11,1.16,.17,.12,.41,.29,.65,.47-1.92,1.92-3.8,3.8-5.68,5.68l1.2,1.2c1.04,1.04,2.72,1.04,3.76,0,3.79-3.79,7.57-7.57,11.36-11.36,.07-.07,.15-.13,.24-.21,.31,.31,.74,.73,1.17,1.16,1.14,1.12,2.67,1.75,4.27,1.77,2.03,.02,4.84,.05,6.53,.04,4.67,0,9.33-.02,14-.05,1.2,0,2.38-.25,3.43-.83,.92-.51,1.76-1.16,2.67-1.77,1.82,1.68,3.98,2.61,6.62,2.61,2.63,0,4.81-.88,6.66-2.69,.06,.05,.1,.08,.13,.12,1.82,1.65,3.9,2.59,6.41,2.58,6.06-.03,12.11-.01,18.17,0,1.01,0,2-.16,2.94-.51,3.15-1.15,5.61-4.2,5.62-7.89,0-6.11,0-12.23,0-18.34ZM11.12,15.85c-1.05-1.04-1.04-2.74,.02-3.77,1.1-1.08,2.2-2.16,3.29-3.23,1.04-1.02,2.69-1.02,3.73,0,1.12,1.1,2.26,2.21,3.4,3.33,1.05,1.03,1.07,2.72,.04,3.77-1.73,1.76-3.44,3.5-5.14,5.23l-5.33-5.33Z"/>
      <path class="cls-1" d="M112.59,16.58c0,3.02,.04,6.04-.01,9.07-.04,2.3,.8,4.24,2.18,6.01,1.27,1.62,2.92,2.7,4.91,3.21,.7,.18,1.45,.27,2.17,.28,4.18,.02,8.35,.03,12.53,0,2.31-.02,4.27-.93,5.93-2.51,1.15-1.09,2.07-2.34,2.56-3.86,.78-2.45,.3-4.63-1.47-6.49-1.63-1.71-3.69-2.59-6.04-2.83-.54-.05-1.09-.07-1.64-.07-2.53,0-5.06,.03-7.6-.01-2.17-.03-4.18-.6-5.9-2.01-2.14-1.74-3.44-3.93-3.64-6.71-.24-3.29,.85-6.07,3.35-8.24,1.3-1.13,2.86-1.72,4.55-1.99,.6-.09,1.21-.14,1.81-.14,5.96-.01,11.92,0,17.89,0,.56,0,1.1,.12,1.41,.66,.11,.18,.19,.41,.21,.62,.07,.74,.15,1.5-.1,2.21-.22,.63-.76,.84-1.38,.88-.12,0-.23,0-.35,0-5.95,0-11.9,0-17.85,0-1.04,0-2.02,.22-2.87,.82-1.43,.99-2.28,2.32-2.33,4.11-.05,1.78,.57,3.24,1.96,4.35,.81,.65,1.75,1.06,2.83,1.06,2.78,0,5.55-.04,8.33,.02,3.38,.06,6.5,.97,9.17,3.14,2.26,1.83,3.7,4.16,4.2,7.04,.46,2.69-.1,5.21-1.5,7.5-1.73,2.82-4.1,4.94-7.27,6.05-1.55,.54-3.15,.81-4.8,.81-3.94,0-7.89,.03-11.83-.01-2.34-.02-4.58-.55-6.6-1.77-3.02-1.83-5.24-4.35-6.44-7.7-.51-1.43-.76-2.92-.76-4.45,0-6.3,0-12.6,0-18.9,0-.58,.12-1.14,.65-1.5,.54-.37,2.54-.37,3.08,0,.52,.35,.65,.89,.65,1.46,0,3.3,0,6.6,0,9.91Z"/>
      <path class="cls-1" d="M165.76,35.09c-.49,.92-1.08,1.78-1.88,2.48-1.34,1.17-2.93,1.8-4.67,1.9-3.39,.21-6.05-1.14-7.87-4.02-.73-1.16-1.05-2.47-1.06-3.83-.02-10-.01-20,0-30,0-1.03,.6-1.63,1.63-1.63,.51,0,1.02,.02,1.53,.06,.72,.07,1.15,.67,1.19,1.41,0,.12,0,.23,0,.35,0,9.85,.02,19.7-.02,29.54-.01,2.51,3.05,4.76,5.49,3.37,1.26-.72,2.09-1.76,2.09-3.31,0-1.83,0-3.66,0-5.5,0-3.9,1.26-7.29,4.01-10.08,1.95-1.97,4.27-3.27,7.02-3.79,3.55-.67,6.93-.23,10.03,1.66,2.92,1.78,5.03,4.28,6.05,7.59,1.12,3.64,.95,7.24-.8,10.62-2.05,3.96-5.29,6.49-9.75,7.33-3.35,.63-6.54,.15-9.53-1.49-.64-.35-1.24-.79-1.81-1.24-.57-.44-1.08-.95-1.64-1.46Zm19.89-9.4c-.09-.75-.12-1.51-.28-2.25-.49-2.26-1.83-3.97-3.57-5.4-1.39-1.14-3.01-1.75-4.8-1.85-1.13-.06-2.26-.05-3.37,.25-2.41,.65-4.14,2.24-5.56,4.18-1.59,2.18-1.79,4.69-1.3,7.25,.47,2.44,1.97,4.24,3.93,5.66,2.3,1.66,4.9,1.95,7.6,1.43,2.22-.43,4.02-1.64,5.4-3.43,1.32-1.71,1.94-3.66,1.94-5.83Z"/>
      <path class="cls-2" d="M90.9,6.72c-2.87,0-5.74,0-8.61,0-.9,0-1.4-.5-1.41-1.4,0-.55,0-1.1,0-1.64,0-.74,.54-1.29,1.28-1.29,5.82,0,11.64,0,17.46,0,.74,0,1.27,.54,1.28,1.28,0,.56,0,1.12,0,1.68,0,.86-.51,1.38-1.36,1.38-2.88,0-5.76,0-8.64,0Z"/>
      <path class="cls-2" d="M64.61,48.79c-2.86,0-5.72,0-8.57,0-.9,0-1.4-.5-1.4-1.41,0-.55,0-1.1,0-1.64,0-.74,.54-1.28,1.28-1.28,5.82,0,11.64,0,17.46,0,.74,0,1.27,.54,1.28,1.28,0,.57,0,1.14,0,1.71,0,.81-.53,1.34-1.33,1.34-2.9,0-5.81,0-8.71,0Z"/>
      <path class="cls-2" d="M10.21,36.73c.31-.33,.64-.67,.94-.98,.4,.39,.8,.77,1.19,1.15-.33,.34-.66,.67-.96,.98-.4-.39-.8-.79-1.17-1.15Z"/>
      <path class="cls-2" d="M13.33,39.87c-.39-.38-.79-.77-1.19-1.17,.33-.32,.67-.65,1-.96,.38,.37,.78,.76,1.15,1.12-.33,.34-.65,.68-.96,1Z"/>
    </g>
  </g>
</svg>