<svg width="22" height="24" viewBox="0 0 22 24" fill="none" xmlns="http://www.w3.org/2000/svg">
<g id="Notification">
<path id="Vector" d="M20.142 20.9772H1.89975C1.56837 20.9805 1.24192 20.8941 0.952771 20.7267C0.663625 20.5592 0.421827 20.3166 0.251354 20.0227C0.0866156 19.7231 0 19.3844 0 19.0397C0 18.6951 0.0866156 18.3564 0.251354 18.0568L2.17448 14.1477C2.18437 14.1028 2.18437 14.0562 2.17448 14.0113V9.09089C2.17448 6.67984 3.10072 4.36753 4.74944 2.66266C6.39815 0.957788 8.63429 0 10.9659 0C13.2976 0 15.5337 0.957788 17.1824 2.66266C18.8311 4.36753 19.7574 6.67984 19.7574 9.09089V14.0341C19.7475 14.0789 19.7475 14.1256 19.7574 14.1704L21.7684 18.0795C21.927 18.3816 22.0066 18.7212 21.9996 19.0648C21.9925 19.4084 21.8989 19.7442 21.7281 20.0391C21.5572 20.3339 21.315 20.5776 21.0253 20.7461C20.7356 20.9146 20.4084 21.0021 20.0761 21L20.142 20.9772ZM11.0209 1.65909C10.0806 1.66056 9.14981 1.85429 8.28218 2.22913C7.41455 2.60398 6.62717 3.15254 5.96534 3.84325C5.30351 4.53396 4.7803 5.35319 4.42581 6.25379C4.07132 7.15439 3.89256 8.11858 3.8998 9.09089V14.0341C3.90154 14.36 3.82206 14.6809 3.66903 14.9659L1.65799 18.8636C1.63245 18.9042 1.61885 18.9516 1.61885 19C1.61885 19.0484 1.63245 19.0958 1.65799 19.1363C1.67936 19.1799 1.71261 19.216 1.75362 19.2402C1.79464 19.2645 1.84162 19.2758 1.88876 19.2727H20.131C20.1782 19.2758 20.2251 19.2645 20.2661 19.2402C20.3072 19.216 20.3404 19.1799 20.3618 19.1363C20.3873 19.0958 20.4009 19.0484 20.4009 19C20.4009 18.9516 20.3873 18.9042 20.3618 18.8636L18.3507 14.9432C18.1977 14.6582 18.1182 14.3373 18.12 14.0113V9.09089C18.1229 7.13885 17.3773 5.26523 16.0466 3.88067C14.7159 2.49611 12.9086 1.71356 11.0209 1.70454V1.65909Z" fill="#25396F"/>
<path id="Vector_2" d="M10.9947 24C9.93428 23.9972 8.91823 23.5745 8.16938 22.8247C7.42053 22.0749 7 21.059 7 20H8.5852C8.56333 20.3301 8.60954 20.6612 8.721 20.9728C8.83245 21.2843 9.00676 21.5697 9.23314 21.8112C9.45952 22.0528 9.73314 22.2453 10.0371 22.377C10.341 22.5086 10.6687 22.5765 11 22.5765C11.3313 22.5765 11.659 22.5086 11.9629 22.377C12.2669 22.2453 12.5405 22.0528 12.7669 21.8112C12.9932 21.5697 13.1676 21.2843 13.279 20.9728C13.3905 20.6612 13.4367 20.3301 13.4148 20H15C15 21.0609 14.578 22.0783 13.8269 22.8284C13.0757 23.5786 12.057 24 10.9947 24Z" fill="#25396F"/>
</g>
</svg>
