<svg width="22" height="23" viewBox="0 0 22 23" fill="none" xmlns="http://www.w3.org/2000/svg">
<g id="vuesax/linear/receipt-item">
<path id="Vector" d="M20.9717 5V7.42C20.9717 9 19.9717 10 18.3917 10H14.9717V3.01C14.9717 1.9 15.8817 1 16.9917 1C18.0817 1.01 19.0817 1.45 19.8017 2.17C20.5217 2.9 20.9717 3.9 20.9717 5Z" stroke="#7670E1" stroke-width="1.5" stroke-miterlimit="10" stroke-linecap="round" stroke-linejoin="round"/>
<path id="Vector_2" d="M0.97168 6V20C0.97168 20.83 1.91168 21.3 2.57168 20.8L4.28168 19.52C4.68168 19.22 5.24168 19.26 5.60168 19.62L7.26168 21.29C7.65168 21.68 8.29168 21.68 8.68168 21.29L10.3617 19.61C10.7117 19.26 11.2717 19.22 11.6617 19.52L13.3717 20.8C14.0317 21.29 14.9717 20.82 14.9717 20V3C14.9717 1.9 15.8717 1 16.9717 1H5.97168H4.97168C1.97168 1 0.97168 2.79 0.97168 5V6Z" stroke="#7670E1" stroke-width="1.5" stroke-miterlimit="10" stroke-linecap="round" stroke-linejoin="round"/>
<path id="Vector_3" d="M7.97168 12.01H10.9717" stroke="#7670E1" stroke-width="1.5" stroke-linecap="round" stroke-linejoin="round"/>
<path id="Vector_4" d="M7.97168 8.01001H10.9717" stroke="#7670E1" stroke-width="1.5" stroke-linecap="round" stroke-linejoin="round"/>
<path id="Vector_5" d="M4.96729 12H4.97627" stroke="#7670E1" stroke-width="2" stroke-linecap="round" stroke-linejoin="round"/>
<path id="Vector_6" d="M4.96729 8H4.97627" stroke="#7670E1" stroke-width="2" stroke-linecap="round" stroke-linejoin="round"/>
</g>
</svg>
