<svg width="25" height="25" viewBox="0 0 25 25" fill="none" xmlns="http://www.w3.org/2000/svg">
<g id="vuesax/linear/receipt">
<g id="vuesax/linear/receipt_2">
<path id="Vector" d="M22.0391 6.54919V8.96919C22.0391 10.5492 21.039 11.5492 19.459 11.5492H16.0391V4.55919C16.0391 3.44919 16.9491 2.54919 18.0591 2.54919C19.1491 2.55919 20.1491 2.99919 20.8691 3.71919C21.5891 4.44919 22.0391 5.44919 22.0391 6.54919Z" stroke="#66C8F9" stroke-width="1.5" stroke-miterlimit="10" stroke-linecap="round" stroke-linejoin="round"/>
<path id="Vector_2" d="M2.03906 7.54919V21.5492C2.03906 22.3792 2.97904 22.8492 3.63904 22.3492L5.34906 21.0692C5.74906 20.7692 6.30907 20.8092 6.66907 21.1692L8.32904 22.8392C8.71904 23.2292 9.35908 23.2292 9.74908 22.8392L11.4291 21.1592C11.7791 20.8092 12.3391 20.7692 12.7291 21.0692L14.4391 22.3492C15.0991 22.8392 16.0391 22.3692 16.0391 21.5492V4.54919C16.0391 3.44919 16.9391 2.54919 18.0391 2.54919H7.03906H6.03906C3.03906 2.54919 2.03906 4.33919 2.03906 6.54919V7.54919Z" stroke="#66C8F9" stroke-width="1.5" stroke-miterlimit="10" stroke-linecap="round" stroke-linejoin="round"/>
</g>
</g>
</svg>
