<svg width="43" height="43" viewBox="0 0 43 43" fill="none" xmlns="http://www.w3.org/2000/svg">
<g id="vuesax/linear/refresh-square-2">
<g id="refresh-square-2">
<path id="Vector" d="M16.582 38.6917H27.082C35.832 38.6917 39.332 35.1917 39.332 26.4417V15.9417C39.332 7.19165 35.832 3.69165 27.082 3.69165H16.582C7.83203 3.69165 4.33203 7.19165 4.33203 15.9417V26.4417C4.33203 35.1917 7.83203 38.6917 16.582 38.6917Z" stroke="#7670E1" stroke-width="1.5" stroke-linecap="round" stroke-linejoin="round"/>
<g id="Group">
<path id="Vector_2" d="M31.457 21.1917C31.457 26.5117 27.152 30.8167 21.832 30.8167C16.512 30.8167 13.2745 25.4617 13.2745 25.4617M13.2745 25.4617H17.6145M13.2745 25.4617V30.2742M12.207 21.1917C12.207 15.8717 16.477 11.5667 21.832 11.5667C28.2545 11.5667 31.457 16.9216 31.457 16.9216M31.457 16.9216V12.1091M31.457 16.9216H27.187" stroke="#7670E1" stroke-width="1.5" stroke-linecap="round" stroke-linejoin="round"/>
</g>
</g>
</g>
</svg>
