<svg width="16" height="16" viewBox="0 0 16 16" fill="none" xmlns="http://www.w3.org/2000/svg">
<g id="Search">
<g id="Group 3">
<mask id="mask0_619_782" style="mask-type:luminance" maskUnits="userSpaceOnUse" x="0" y="0" width="16" height="15">
<path id="Clip 2" fill-rule="evenodd" clip-rule="evenodd" d="M0.5 0.445312H15.1076V14.7968H0.5V0.445312Z" fill="white"/>
</mask>
<g mask="url(#mask0_619_782)">
<path id="Fill 1" fill-rule="evenodd" clip-rule="evenodd" d="M7.80425 1.55058C4.397 1.55058 1.625 4.27321 1.625 7.62068C1.625 10.9682 4.397 13.6915 7.80425 13.6915C11.2108 13.6915 13.9827 10.9682 13.9827 7.62068C13.9827 4.27321 11.2108 1.55058 7.80425 1.55058ZM7.80425 14.7968C3.77675 14.7968 0.5 11.5775 0.5 7.62068C0.5 3.66384 3.77675 0.445312 7.80425 0.445312C11.8317 0.445312 15.1077 3.66384 15.1077 7.62068C15.1077 11.5775 11.8317 14.7968 7.80425 14.7968Z" fill="white"/>
</g>
</g>
<g id="Group 6">
<mask id="mask1_619_782" style="mask-type:luminance" maskUnits="userSpaceOnUse" x="11" y="12" width="5" height="4">
<path id="Clip 5" fill-rule="evenodd" clip-rule="evenodd" d="M11.9297 12.0195H15.6977V15.7146H11.9297V12.0195Z" fill="white"/>
</mask>
<g mask="url(#mask1_619_782)">
<path id="Fill 4" fill-rule="evenodd" clip-rule="evenodd" d="M15.1354 15.7146C14.9921 15.7146 14.8481 15.6608 14.7379 15.5532L12.0949 12.964C11.8751 12.7481 11.8744 12.3981 12.0941 12.1822C12.3131 11.9648 12.6694 11.9663 12.8899 12.1807L15.5329 14.7707C15.7526 14.9866 15.7534 15.3359 15.5336 15.5518C15.4241 15.6608 15.2794 15.7146 15.1354 15.7146Z" fill="white"/>
</g>
</g>
</g>
</svg>
