<svg width="16" height="16" viewBox="0 0 16 16" fill="none" xmlns="http://www.w3.org/2000/svg">
<g id="shield 1" clip-path="url(#clip0_27_4445)">
<g id="Group">
<g id="Group_2">
<path id="Vector" d="M8.29028 0.320435C5.14028 0.320435 2.57739 2.88333 2.57739 6.03333C2.57739 7.27991 2.97114 8.46438 3.71704 9.45813L7.93813 15.1432C7.94868 15.157 7.96479 15.1623 7.97651 15.1746C8.18745 15.4004 8.49185 15.3436 8.64214 15.1432C9.85767 13.5213 12.0857 10.4923 12.9423 9.34973C12.9423 9.34973 12.9426 9.34885 12.9429 9.34827L12.9482 9.34124C13.6384 8.37151 14.0032 7.22776 14.0032 6.03333C14.0032 2.88333 11.4403 0.320435 8.29028 0.320435ZM8.29028 9.11536C6.59429 9.11536 5.20825 7.72932 5.20825 6.03333C5.20825 4.33733 6.59429 2.95129 8.29028 2.95129C9.98628 2.95129 11.3723 4.33733 11.3723 6.03333C11.3723 7.72932 9.98628 9.11536 8.29028 9.11536Z" fill="#FFC107"/>
</g>
</g>
</g>
<defs>
<clipPath id="clip0_27_4445">
<rect width="15" height="15" fill="white" transform="translate(0.790283 0.320435)"/>
</clipPath>
</defs>
</svg>
