<svg width="16" height="16" viewBox="0 0 16 16" fill="none" xmlns="http://www.w3.org/2000/svg">
<g id="calendar 1" clip-path="url(#clip0_27_4454)">
<g id="Group">
<path id="Vector" d="M15.7903 5.27161C15.7903 4.2928 15.7903 3.60804 15.7903 3.54309C15.7903 2.81615 15.1989 2.22473 14.4719 2.22473H14.2961V3.83606C14.2961 4.07875 14.0994 4.27551 13.8567 4.27551C13.614 4.27551 13.4172 4.07875 13.4172 3.83606C13.4172 3.34273 13.4172 1.98356 13.4172 1.49231C13.4172 1.24961 13.2205 1.05286 12.9778 1.05286C12.7351 1.05286 12.5383 1.24961 12.5383 1.49231V2.22473H9.60864V3.83606C9.60864 4.07875 9.41188 4.27551 9.16919 4.27551C8.92649 4.27551 8.72974 4.07875 8.72974 3.83606C8.72974 3.34273 8.72974 1.98356 8.72974 1.49231C8.72974 1.24961 8.53298 1.05286 8.29028 1.05286C8.04759 1.05286 7.85083 1.24961 7.85083 1.49231V2.22473H4.92114V3.83606C4.92114 4.07875 4.72438 4.27551 4.48169 4.27551C4.23899 4.27551 4.04224 4.07875 4.04224 3.83606C4.04224 3.34273 4.04224 1.98356 4.04224 1.49231C4.04224 1.24961 3.84548 1.05286 3.60278 1.05286C3.36009 1.05286 3.16333 1.24961 3.16333 1.49231V2.22473H2.10864C1.3817 2.22473 0.790283 2.81615 0.790283 3.54309V5.27161H15.7903Z" fill="#FFC107"/>
<path id="Vector_2" d="M0.790283 6.15051V13.2697C0.790283 13.9966 1.3817 14.588 2.10864 14.588H14.4719C15.1989 14.588 15.7903 13.9966 15.7903 13.2697C15.7903 13.0814 15.7903 8.96852 15.7903 6.15051C15.5168 6.15051 0.941572 6.15051 0.790283 6.15051ZM5.00903 12.2443H4.07153C3.82884 12.2443 3.63208 12.0475 3.63208 11.8048C3.63208 11.5621 3.82884 11.3654 4.07153 11.3654H5.00903C5.25173 11.3654 5.44849 11.5621 5.44849 11.8048C5.44849 12.0475 5.25173 12.2443 5.00903 12.2443ZM5.00903 10.3693H4.07153C3.82884 10.3693 3.63208 10.1725 3.63208 9.92981C3.63208 9.68711 3.82884 9.49036 4.07153 9.49036H5.00903C5.25173 9.49036 5.44849 9.68711 5.44849 9.92981C5.44849 10.1725 5.25173 10.3693 5.00903 10.3693ZM5.00903 8.49426H4.07153C3.82884 8.49426 3.63208 8.2975 3.63208 8.05481C3.63208 7.81211 3.82884 7.61536 4.07153 7.61536H5.00903C5.25173 7.61536 5.44849 7.81211 5.44849 8.05481C5.44849 8.2975 5.25173 8.49426 5.00903 8.49426ZM8.75903 12.2443H7.82153C7.57884 12.2443 7.38208 12.0475 7.38208 11.8048C7.38208 11.5621 7.57884 11.3654 7.82153 11.3654H8.75903C9.00173 11.3654 9.19849 11.5621 9.19849 11.8048C9.19849 12.0475 9.00173 12.2443 8.75903 12.2443ZM8.75903 10.3693H7.82153C7.57884 10.3693 7.38208 10.1725 7.38208 9.92981C7.38208 9.68711 7.57884 9.49036 7.82153 9.49036H8.75903C9.00173 9.49036 9.19849 9.68711 9.19849 9.92981C9.19849 10.1725 9.00173 10.3693 8.75903 10.3693ZM8.75903 8.49426H7.82153C7.57884 8.49426 7.38208 8.2975 7.38208 8.05481C7.38208 7.81211 7.57884 7.61536 7.82153 7.61536H8.75903C9.00173 7.61536 9.19849 7.81211 9.19849 8.05481C9.19849 8.2975 9.00173 8.49426 8.75903 8.49426ZM12.509 12.2443H11.5715C11.3288 12.2443 11.1321 12.0475 11.1321 11.8048C11.1321 11.5621 11.3288 11.3654 11.5715 11.3654H12.509C12.7517 11.3654 12.9485 11.5621 12.9485 11.8048C12.9485 12.0475 12.7517 12.2443 12.509 12.2443ZM12.509 10.3693H11.5715C11.3288 10.3693 11.1321 10.1725 11.1321 9.92981C11.1321 9.68711 11.3288 9.49036 11.5715 9.49036H12.509C12.7517 9.49036 12.9485 9.68711 12.9485 9.92981C12.9485 10.1725 12.7517 10.3693 12.509 10.3693ZM12.509 8.49426H11.5715C11.3288 8.49426 11.1321 8.2975 11.1321 8.05481C11.1321 7.81211 11.3288 7.61536 11.5715 7.61536H12.509C12.7517 7.61536 12.9485 7.81211 12.9485 8.05481C12.9485 8.2975 12.7517 8.49426 12.509 8.49426Z" fill="#FFC107"/>
</g>
</g>
<defs>
<clipPath id="clip0_27_4454">
<rect width="15" height="15" fill="white" transform="translate(0.790283 0.320435)"/>
</clipPath>
</defs>
</svg>
