<svg width="16" height="17" viewBox="0 0 16 17" fill="none" xmlns="http://www.w3.org/2000/svg">
<g id="iconfinder_1_Instagram_colored_svg_1_5296765 1" clip-path="url(#clip0_27_5294)">
<g id="Group">
<path id="Vector" d="M8 0.930908C5.82731 0.930908 5.55488 0.940127 4.70159 0.979064C3.85009 1.01791 3.26853 1.15313 2.75966 1.35091C2.23359 1.55535 1.78744 1.82891 1.34272 2.27366C0.897969 2.71838 0.624406 3.16453 0.419969 3.6906C0.222188 4.19944 0.0869687 4.781 0.048125 5.6325C0.0091875 6.48578 0 6.75822 0 8.93091C0 11.1035 0.0091875 11.376 0.048125 12.2293C0.0869687 13.0808 0.222188 13.6623 0.419969 14.1712C0.624406 14.6972 0.897969 15.1434 1.34272 15.5882C1.78744 16.0329 2.23359 16.3064 2.75966 16.5109C3.26853 16.7086 3.85009 16.8439 4.70159 16.8827C5.55488 16.9216 5.82731 16.9308 8 16.9308C10.1726 16.9308 10.4451 16.9216 11.2983 16.8827C12.1498 16.8439 12.7314 16.7086 13.2402 16.5109C13.7663 16.3064 14.2125 16.0329 14.6573 15.5882C15.102 15.1434 15.3755 14.6972 15.58 14.1712C15.7777 13.6623 15.913 13.0808 15.9518 12.2293C15.9907 11.376 15.9999 11.1035 15.9999 8.93091C15.9999 6.75822 15.9907 6.48578 15.9518 5.6325C15.913 4.781 15.7777 4.19944 15.58 3.6906C15.3755 3.16453 15.102 2.71838 14.6573 2.27366C14.2125 1.82891 13.7663 1.55535 13.2402 1.35091C12.7314 1.15313 12.1498 1.01791 11.2983 0.979064C10.4451 0.940127 10.1726 0.930908 8 0.930908V0.930908ZM8 2.37238C10.1361 2.37238 10.3891 2.3805 11.2327 2.419C12.0126 2.4546 12.4362 2.58491 12.7181 2.69444C13.0915 2.83956 13.358 3.01294 13.638 3.29288C13.9179 3.57281 14.0913 3.83935 14.2364 4.21272C14.346 4.49463 14.4763 4.91822 14.5119 5.69819C14.5503 6.54178 14.5585 6.79481 14.5585 8.93091C14.5585 11.067 14.5503 11.32 14.5119 12.1636C14.4763 12.9435 14.346 13.3671 14.2364 13.649C14.0913 14.0224 13.9179 14.2889 13.638 14.5689C13.358 14.8488 13.0915 15.0222 12.7181 15.1673C12.4362 15.2769 12.0126 15.4072 11.2327 15.4428C10.3892 15.4813 10.1362 15.4894 8 15.4894C5.86372 15.4894 5.61078 15.4813 4.76728 15.4428C3.98731 15.4072 3.56372 15.2769 3.28181 15.1673C2.90841 15.0222 2.64191 14.8488 2.36194 14.5689C2.082 14.2889 1.90863 14.0224 1.76353 13.649C1.65397 13.3671 1.52366 12.9435 1.48806 12.1636C1.44956 11.32 1.44144 11.067 1.44144 8.93091C1.44144 6.79481 1.44956 6.54178 1.48806 5.69819C1.52366 4.91822 1.65397 4.49463 1.76353 4.21272C1.90863 3.83935 2.082 3.57281 2.36194 3.29288C2.64191 3.01294 2.90841 2.83956 3.28181 2.69444C3.56372 2.58491 3.98731 2.4546 4.76728 2.419C5.61087 2.3805 5.86391 2.37238 8 2.37238Z" fill="#7670E1"/>
<path id="Vector_2" d="M8.0134 11.5963C6.54062 11.5963 5.34671 10.4024 5.34671 8.92972C5.34671 7.45694 6.54062 6.26303 8.0134 6.26303C9.48612 6.26303 10.68 7.45694 10.68 8.92972C10.68 10.4024 9.48612 11.5963 8.0134 11.5963ZM8.0134 4.82159C5.74452 4.82159 3.90527 6.66084 3.90527 8.92972C3.90527 11.1985 5.74452 13.0378 8.0134 13.0378C10.2822 13.0378 12.1215 11.1985 12.1215 8.92972C12.1215 6.66084 10.2822 4.82159 8.0134 4.82159Z" fill="#7670E1"/>
<path id="Vector_3" d="M13.2325 4.66407C13.2325 5.19429 12.8027 5.62407 12.2725 5.62407C11.7423 5.62407 11.3125 5.19429 11.3125 4.66407C11.3125 4.13388 11.7423 3.7041 12.2725 3.7041C12.8027 3.7041 13.2325 4.13388 13.2325 4.66407Z" fill="#7670E1"/>
</g>
</g>
<defs>
<clipPath id="clip0_27_5294">
<rect width="16" height="16" fill="white" transform="translate(0 0.930908)"/>
</clipPath>
</defs>
</svg>
