<svg width="16" height="17" viewBox="0 0 16 17" fill="none" xmlns="http://www.w3.org/2000/svg">
<g id="iconfinder_1_Twitter_colored_svg_5296514 1">
<path id="Vector" d="M5.03169 15.4317C11.0694 15.4317 14.3718 10.4295 14.3718 6.09156C14.3718 5.9495 14.3718 5.80806 14.3623 5.66725C15.0047 5.20253 15.5593 4.62719 16 3.96806C15.4009 4.23353 14.7653 4.4076 14.1146 4.48453C14.7997 4.07441 15.3128 3.42885 15.5577 2.66885C14.9134 3.05119 14.2084 3.32069 13.4733 3.46566C12.8526 2.80563 11.9857 2.43091 11.0798 2.43091C9.27719 2.43091 7.79397 3.91416 7.79397 5.71666C7.79397 5.96672 7.82253 6.216 7.87903 6.45956C5.24097 6.32735 2.77966 5.07953 1.11359 3.02981C0.247219 4.52125 0.6955 6.45406 2.12991 7.41188C1.60756 7.39641 1.09644 7.25547 0.64 7.001V7.0426C0.640437 8.59928 1.74772 9.95231 3.27359 10.2605C2.79034 10.3923 2.28319 10.4116 1.79138 10.3168C2.22034 11.6508 3.45734 12.5702 4.85825 12.5965C3.69606 13.5099 2.25959 14.006 0.781438 14.0045C0.52025 14.004 0.259313 13.9882 0 13.9572C1.50106 14.9204 3.24813 15.4315 5.03169 15.4292" fill="#7670E1"/>
</g>
</svg>
