<svg width="14" height="20" viewBox="0 0 14 20" fill="none" xmlns="http://www.w3.org/2000/svg">
<path id="Vector" d="M13.4759 0.57465C13.3784 0.506927 13.2661 0.46379 13.1483 0.448915C13.0306 0.434041 12.9111 0.447879 12.7998 0.489234L7.64059 2.40395C7.49977 2.45626 7.37833 2.55042 7.29256 2.67382C7.20679 2.79721 7.1608 2.94392 7.16077 3.09423V12.633C6.4746 12.0676 5.62064 11.7455 4.73224 11.717C3.84384 11.6886 2.97103 11.9554 2.25013 12.4757C1.52924 12.996 1.00085 13.7406 0.747477 14.5932C0.494104 15.4458 0.530021 16.3583 0.849617 17.1883C1.16921 18.0183 1.75449 18.719 2.51405 19.181C3.2736 19.643 4.16468 19.8402 5.04809 19.7419C5.9315 19.6437 6.75751 19.2554 7.39712 18.6377C8.03673 18.0201 8.45393 17.2078 8.58355 16.3279C8.61494 16.2472 8.63155 16.1616 8.6326 16.075V7.82407L10.673 7.30365C11.5652 7.07646 12.3562 6.55821 12.921 5.83081C13.4858 5.1034 13.7923 4.20835 13.7919 3.28716V1.1795C13.7919 1.06065 13.7631 0.943569 13.7081 0.838241C13.6531 0.732913 13.5734 0.642474 13.4759 0.57465ZM4.60962 18.2981C4.10504 18.2981 3.61179 18.1483 3.19226 17.8678C2.77272 17.5873 2.44574 17.1886 2.25265 16.7221C2.05956 16.2556 2.00902 15.7423 2.10746 15.247C2.2059 14.7518 2.44887 14.2969 2.80566 13.9399C3.16245 13.5829 3.61703 13.3397 4.11191 13.2412C4.60679 13.1427 5.11974 13.1932 5.58591 13.3865C6.05207 13.5797 6.45051 13.9069 6.73083 14.3268C7.01116 14.7466 7.16077 15.2402 7.16077 15.7451C7.15973 16.4218 6.8906 17.0704 6.41236 17.5488C5.93412 18.0272 5.28582 18.2963 4.60962 18.2971V18.2981ZM12.32 3.28815C12.3202 3.88213 12.1225 4.45922 11.7582 4.92816C11.3939 5.3971 10.8838 5.73112 10.3085 5.87743L8.63163 6.30505V3.60874L12.319 2.23948L12.32 3.28815Z" fill="white"/>
</svg>
