<svg width="25" height="25" viewBox="0 0 25 25" fill="none" xmlns="http://www.w3.org/2000/svg">
<g id="Iconly/Light/Ticket">
<g id="Ticket">
<g id="Group">
<path id="Stroke 1" d="M13.9785 4.58948V7.00948" stroke="white" stroke-width="1.5" stroke-linecap="round" stroke-linejoin="round"/>
<path id="Stroke 3" d="M13.9785 18.0992V20.1232" stroke="white" stroke-width="1.5" stroke-linecap="round" stroke-linejoin="round"/>
<path id="Stroke 6" d="M13.9785 14.6638V9.84277" stroke="white" stroke-width="1.5" stroke-linecap="round" stroke-linejoin="round"/>
</g>
<path id="Stroke 7" fill-rule="evenodd" clip-rule="evenodd" d="M18.831 20.3392C20.6531 20.3392 22.1289 18.8818 22.1289 17.0824V14.4899C20.9232 14.4899 19.9522 13.5309 19.9522 12.3403C19.9522 11.1496 20.9232 10.1896 22.1289 10.1896L22.1279 7.59609C22.1279 5.79668 20.651 4.33923 18.83 4.33923H5.42782C3.6068 4.33923 2.12995 5.79668 2.12995 7.59609L2.12891 10.2741C3.33458 10.2741 4.30559 11.1496 4.30559 12.3403C4.30559 13.5309 3.33458 14.4899 2.12891 14.4899V17.0824C2.12891 18.8818 3.60471 20.3392 5.42678 20.3392H18.831Z" stroke="white" stroke-width="1.5" stroke-linecap="round" stroke-linejoin="round"/>
</g>
</g>
</svg>
